<!DOCTYPE svg PUBLIC "-//W3C//DTD SVG 1.1//EN" "http://www.w3.org/Graphics/SVG/1.1/DTD/svg11.dtd"> <svg width="521px" height="521px" version="1.1" baseProfile="full" xmlns="http://www.w3.org/2000/svg" xmlns:xlink="http://www.w3.org/1999/xlink" xmlns:ev="http://www.w3.org/2001/xml-events"><polygon fill="rgb(228,119,25)" stroke="rgb(228,119,25)" points="300.9063377380371,259.54411166906357 288.778621673584,248.5376414656639 271.20910263061523,199.25293201208115"></polygon><polygon fill="rgb(247,132,25)" stroke="rgb(247,132,25)" points="272.0770797729492,181.42730825254694 271.20910263061523,199.25293201208115 270.6581268310547,156.73623126745224"></polygon><polygon fill="rgb(119,57,0)" stroke="rgb(119,57,0)" points="270.6581268310547,156.73623126745224 260.6312141418457,143.01971864700317 264.84719467163086,139.66689157485962"></polygon><polygon fill="rgb(119,57,0)" stroke="rgb(119,57,0)" points="264.84719467163086,139.66689157485962 302.2284564971924,138.4099828004837 270.6581268310547,156.73623126745224"></polygon><polygon fill="rgb(119,57,0)" stroke="rgb(119,57,0)" points="264.84719467163086,139.66689157485962 257.91047286987305,132.205291390419 263.05937576293945,127.6037295460701"></polygon><polygon fill="rgb(119,57,0)" stroke="rgb(119,57,0)" points="264.84719467163086,139.66689157485962 263.05937576293945,127.6037295460701 302.2284564971924,138.4099828004837"></polygon><polygon fill="rgb(119,57,0)" stroke="rgb(119,57,0)" points="256.05738830566406,121.38967084884644 260.61607360839844,117.4305682182312 263.05937576293945,127.6037295460701"></polygon><polygon fill="rgb(119,57,0)" stroke="rgb(119,57,0)" points="270.6581268310547,156.73623126745224 302.2284564971924,138.4099828004837 307.52612113952637,150.10868033766747"></polygon><polygon fill="rgb(119,57,0)" stroke="rgb(119,57,0)" points="302.2284564971924,138.4099828004837 263.05937576293945,127.6037295460701 260.61607360839844,117.4305682182312"></polygon><polygon fill="rgb(247,132,25)" stroke="rgb(247,132,25)" points="270.6581268310547,156.73623126745224 307.52612113952637,150.10868033766747 272.0770797729492,181.42730825254694"></polygon><polygon fill="rgb(119,57,0)" stroke="rgb(119,57,0)" points="260.61607360839844,117.4305682182312 242.92243194580078,80.49652111530304 281.4709053039551,92.79368090629578"></polygon><polygon fill="rgb(119,57,0)" stroke="rgb(119,57,0)" points="281.4709053039551,92.79368090629578 302.2284564971924,138.4099828004837 260.61607360839844,117.4305682182312"></polygon><polygon fill="rgb(205,98,0)" stroke="rgb(205,98,0)" points="300.9063377380371,259.54411166906357 269.9378128051758,221.332213640213 280.83676528930664,233.1239629983902"></polygon><polygon fill="rgb(247,132,25)" stroke="rgb(247,132,25)" points="272.0770797729492,181.42730825254694 280.83676528930664,233.1239629983902 269.9378128051758,221.332213640213"></polygon><polygon fill="rgb(119,57,0)" stroke="rgb(119,57,0)" points="281.4709053039551,92.79368090629578 242.92243194580078,80.49652111530304 235.23112106323242,48.20979833602905"></polygon><polygon fill="rgb(119,57,0)" stroke="rgb(119,57,0)" points="281.4709053039551,92.79368090629578 321.7619876861572,128.449052631855 307.52612113952637,150.10868033766747"></polygon><polygon fill="rgb(192,172,157)" stroke="rgb(192,172,157)" points="390.996376991272,276.01590847969055 405.55089139938354,267.2583899497986 355.57401752471924,305.6855511665344"></polygon><polygon fill="rgb(228,119,25)" stroke="rgb(228,119,25)" points="307.52612113952637,150.10868033766747 321.7619876861572,128.449052631855 300.04009437561035,200.94647732377052"></polygon><polygon fill="rgb(228,119,25)" stroke="rgb(228,119,25)" points="300.04009437561035,200.94647732377052 272.0770797729492,181.42730825254694 307.52612113952637,150.10868033766747"></polygon><polygon fill="rgb(228,116,36)" stroke="rgb(228,116,36)" points="272.0770797729492,181.42730825254694 281.70687103271484,210.92804861068726 280.83676528930664,233.1239629983902"></polygon><polygon fill="rgb(205,98,0)" stroke="rgb(205,98,0)" points="281.70687103271484,210.92804861068726 272.0770797729492,181.42730825254694 300.04009437561035,200.94647732377052"></polygon><polygon fill="rgb(119,57,0)" stroke="rgb(119,57,0)" points="235.23112106323242,48.20979833602905 321.7619876861572,128.449052631855 281.4709053039551,92.79368090629578"></polygon><polygon fill="rgb(247,132,25)" stroke="rgb(247,132,25)" points="280.83676528930664,233.1239629983902 281.70687103271484,210.92804861068726 293.82444763183594,229.0675642490387"></polygon><polygon fill="rgb(228,119,25)" stroke="rgb(228,119,25)" points="321.7619876861572,128.449052631855 235.23112106323242,48.20979833602905 333.8273334503174,66.79781556129456"></polygon><polygon fill="rgb(36,51,67)" stroke="rgb(36,51,67)" points="293.82444763183594,229.0675642490387 281.70687103271484,210.92804861068726 293.18749809265137,207.98423624038696"></polygon><polygon fill="rgb(225,119,25)" stroke="rgb(225,119,25)" points="458.3272762298584,123.89688193798065 397.9226989746094,72.28811979293823 429.1536512374878,79.03352117538452"></polygon><polygon fill="rgb(205,98,0)" stroke="rgb(205,98,0)" points="300.04009437561035,200.94647732377052 293.18749809265137,207.98423624038696 281.70687103271484,210.92804861068726"></polygon><polygon fill="rgb(247,132,25)" stroke="rgb(247,132,25)" points="353.36844635009766,134.88817030191422 321.7619876861572,128.449052631855 333.8273334503174,66.79781556129456"></polygon><polygon fill="rgb(247,132,25)" stroke="rgb(247,132,25)" points="333.8273334503174,66.79781556129456 397.9226989746094,72.28811979293823 353.36844635009766,134.88817030191422"></polygon><polygon fill="rgb(247,132,25)" stroke="rgb(247,132,25)" points="247.79716873168945,279.5209444761276 280.83676528930664,233.1239629983902 293.82444763183594,229.0675642490387"></polygon><polygon fill="rgb(225,119,25)" stroke="rgb(225,119,25)" points="458.49378776550293,188.17587289959192 457.9654426574707,210.00298154354095 458.3272762298584,123.89688193798065"></polygon><polygon fill="rgb(205,98,0)" stroke="rgb(205,98,0)" points="293.18749809265137,207.98423624038696 300.04009437561035,200.94647732377052 293.82444763183594,229.0675642490387"></polygon><polygon fill="rgb(192,172,157)" stroke="rgb(192,172,157)" points="289.2706604003906,316.2779189348221 381.4751726388931,297.3371775150299 355.57401752471924,305.6855511665344"></polygon><polygon fill="rgb(247,132,25)" stroke="rgb(247,132,25)" points="321.7619876861572,128.449052631855 353.36844635009766,134.88817030191422 323.00150299072266,209.09309902787209"></polygon><polygon fill="rgb(247,132,25)" stroke="rgb(247,132,25)" points="323.00150299072266,209.09309902787209 300.04009437561035,200.94647732377052 321.7619876861572,128.449052631855"></polygon><polygon fill="rgb(228,119,25)" stroke="rgb(228,119,25)" points="487.1289710998535,279.6971926689148 470.4694175720215,331.8244262933731 381.4751726388931,297.3371775150299"></polygon><polygon fill="rgb(228,119,25)" stroke="rgb(228,119,25)" points="381.4751726388931,297.3371775150299 390.4606304168701,271.90839916467667 487.1289710998535,279.6971926689148"></polygon><polygon fill="rgb(205,98,0)" stroke="rgb(205,98,0)" points="381.4751726388931,297.3371775150299 351.2634115219116,263.71526646614075 390.4606304168701,271.90839916467667"></polygon><polygon fill="rgb(214,194,178)" stroke="rgb(214,194,178)" points="276.19397735595703,311.8596293926239 381.4751726388931,297.3371775150299 289.2706604003906,316.2779189348221"></polygon><polygon fill="rgb(247,132,25)" stroke="rgb(247,132,25)" points="293.82444763183594,229.0675642490387 250.27064895629883,278.32769203186035 247.79716873168945,279.5209444761276"></polygon><polygon fill="rgb(192,172,157)" stroke="rgb(192,172,157)" points="355.57401752471924,305.6855511665344 286.02955627441406,324.2955573797226 289.2706604003906,316.2779189348221"></polygon><polygon fill="rgb(214,194,178)" stroke="rgb(214,194,178)" points="381.4751726388931,297.3371775150299 276.19397735595703,311.8596293926239 270.5717239379883,292.441281080246"></polygon><polygon fill="rgb(228,119,25)" stroke="rgb(228,119,25)" points="270.5717239379883,292.441281080246 351.2634115219116,263.71526646614075 381.4751726388931,297.3371775150299"></polygon><polygon fill="rgb(247,132,25)" stroke="rgb(247,132,25)" points="291.93739128112793,222.7370219528675 300.04009437561035,200.94647732377052 323.00150299072266,209.09309902787209"></polygon><polygon fill="rgb(247,132,25)" stroke="rgb(247,132,25)" points="323.00150299072266,209.09309902787209 312.104793548584,230.88505119085312 291.93739128112793,222.7370219528675"></polygon><polygon fill="rgb(225,119,25)" stroke="rgb(225,119,25)" points="469.8097629547119,197.66840548813343 466.42842292785645,190.43644757568836 458.3272762298584,123.89688193798065"></polygon><polygon fill="rgb(247,132,25)" stroke="rgb(247,132,25)" points="291.93739128112793,222.7370219528675 312.104793548584,230.88505119085312 267.2018394470215,287.83731639385223"></polygon><polygon fill="rgb(247,132,25)" stroke="rgb(247,132,25)" points="267.2018394470215,287.83731639385223 250.27064895629883,278.32769203186035 291.93739128112793,222.7370219528675"></polygon><polygon fill="rgb(192,172,157)" stroke="rgb(192,172,157)" points="262.27423095703125,309.7113584280014 246.13604736328125,296.92178416252136 268.6571617126465,310.605703830719"></polygon><polygon fill="rgb(192,172,157)" stroke="rgb(192,172,157)" points="268.6571617126465,310.605703830719 286.02955627441406,324.2955573797226 262.27423095703125,309.7113584280014"></polygon><polygon fill="rgb(225,119,25)" stroke="rgb(225,119,25)" points="458.3272762298584,123.89688193798065 474.57043075561523,184.12167189642787 470.4170150756836,174.72865419089794"></polygon><polygon fill="rgb(228,119,25)" stroke="rgb(228,119,25)" points="323.00150299072266,209.09309902787209 353.36844635009766,134.88817030191422 404.02266454696655,174.35459934920073"></polygon><polygon fill="rgb(225,119,25)" stroke="rgb(225,119,25)" points="478.5680866241455,169.74726159870625 474.76486587524414,161.714456230402 458.3272762298584,123.89688193798065"></polygon><polygon fill="rgb(205,98,0)" stroke="rgb(205,98,0)" points="336.4528999328613,224.15018326044083 323.6276035308838,241.43856126070023 323.00150299072266,209.09309902787209"></polygon><polygon fill="rgb(225,119,25)" stroke="rgb(225,119,25)" points="323.6276035308838,241.43856126070023 312.104793548584,230.88505119085312 323.00150299072266,209.09309902787209"></polygon><polygon fill="rgb(36,51,67)" stroke="rgb(36,51,67)" points="323.6276035308838,241.43856126070023 336.4528999328613,224.15018326044083 355.1285648345947,239.44375759363174"></polygon><polygon fill="rgb(247,132,25)" stroke="rgb(247,132,25)" points="351.2634115219116,263.71526646614075 323.6276035308838,241.43856126070023 355.1285648345947,239.44375759363174"></polygon><polygon fill="rgb(205,98,0)" stroke="rgb(205,98,0)" points="355.1285648345947,239.44375759363174 336.4528999328613,224.15018326044083 323.00150299072266,209.09309902787209"></polygon><polygon fill="rgb(228,119,25)" stroke="rgb(228,119,25)" points="404.02266454696655,174.35459934920073 384.45726902782917,219.05797788500786 323.00150299072266,209.09309902787209"></polygon><polygon fill="rgb(119,57,0)" stroke="rgb(119,57,0)" points="457.9654426574707,210.00298154354095 404.02266454696655,174.35459934920073 434.9696159362793,169.0716358423233"></polygon><polygon fill="rgb(247,132,25)" stroke="rgb(247,132,25)" points="457.9654426574707,210.00298154354095 384.45726902782917,219.05797788500786 404.02266454696655,174.35459934920073"></polygon><polygon fill="rgb(228,116,36)" stroke="rgb(228,116,36)" points="312.104793548584,230.88505119085312 323.6276035308838,241.43856126070023 267.2018394470215,287.83731639385223"></polygon><polygon fill="rgb(247,132,25)" stroke="rgb(247,132,25)" points="323.6276035308838,241.43856126070023 351.2634115219116,263.71526646614075 270.5717239379883,292.441281080246"></polygon><polygon fill="rgb(247,132,25)" stroke="rgb(247,132,25)" points="270.5717239379883,292.441281080246 267.2018394470215,287.83731639385223 323.6276035308838,241.43856126070023"></polygon><polygon fill="rgb(205,98,0)" stroke="rgb(205,98,0)" points="323.00150299072266,209.09309902787209 384.45726902782917,219.05797788500786 355.1285648345947,239.44375759363174"></polygon><polygon fill="rgb(119,57,0)" stroke="rgb(119,57,0)" points="404.02266454696655,174.35459934920073 353.36844635009766,134.88817030191422 410.4667453765869,111.85729813575745"></polygon><polygon fill="rgb(119,57,0)" stroke="rgb(119,57,0)" points="410.4667453765869,111.85729813575745 434.9696159362793,169.0716358423233 404.02266454696655,174.35459934920073"></polygon><polygon fill="rgb(228,116,36)" stroke="rgb(228,116,36)" points="384.45726902782917,219.05797788500786 351.2634115219116,263.71526646614075 355.1285648345947,239.44375759363174"></polygon><polygon fill="rgb(247,132,25)" stroke="rgb(247,132,25)" points="390.4606304168701,271.90839916467667 351.2634115219116,263.71526646614075 384.45726902782917,219.05797788500786"></polygon><polygon fill="rgb(119,57,0)" stroke="rgb(119,57,0)" points="466.42842292785645,190.43644757568836 457.9654426574707,210.00298154354095 434.9696159362793,169.0716358423233"></polygon><polygon fill="rgb(192,172,157)" stroke="rgb(192,172,157)" points="276.19397735595703,311.8596293926239 289.2706604003906,316.2779189348221 286.02955627441406,324.2955573797226"></polygon><polygon fill="rgb(119,57,0)" stroke="rgb(119,57,0)" points="466.42842292785645,190.43644757568836 434.9696159362793,169.0716358423233 470.4170150756836,174.72865419089794"></polygon><polygon fill="rgb(192,172,157)" stroke="rgb(192,172,157)" points="286.02955627441406,324.2955573797226 268.6571617126465,310.605703830719 276.19397735595703,311.8596293926239"></polygon><polygon fill="rgb(0,0,0)" stroke="rgb(0,0,0)" points="268.6571617126465,310.605703830719 246.13604736328125,296.92178416252136 238.29406356811523,287.28677809238434"></polygon><polygon fill="rgb(119,57,0)" stroke="rgb(119,57,0)" points="474.76486587524414,161.714456230402 434.9696159362793,169.0716358423233 410.4667453765869,111.85729813575745"></polygon><polygon fill="rgb(119,57,0)" stroke="rgb(119,57,0)" points="434.9696159362793,169.0716358423233 474.76486587524414,161.714456230402 470.4170150756836,174.72865419089794"></polygon><polygon fill="rgb(0,0,0)" stroke="rgb(0,0,0)" points="247.79716873168945,279.5209444761276 250.27064895629883,278.32769203186035 239.65406799316406,285.4934551715851"></polygon><polygon fill="rgb(247,132,25)" stroke="rgb(247,132,25)" points="384.45726902782917,219.05797788500786 487.1289710998535,279.6971926689148 390.4606304168701,271.90839916467667"></polygon><polygon fill="rgb(247,132,25)" stroke="rgb(247,132,25)" points="384.45726902782917,219.05797788500786 457.9654426574707,210.00298154354095 487.1289710998535,279.6971926689148"></polygon><polygon fill="rgb(0,0,0)" stroke="rgb(0,0,0)" points="239.65406799316406,285.4934551715851 250.27064895629883,278.32769203186035 267.2018394470215,287.83731639385223"></polygon><polygon fill="rgb(119,57,0)" stroke="rgb(119,57,0)" points="410.4667453765869,111.85729813575745 353.36844635009766,134.88817030191422 438.72315216064453,60.996150732040405"></polygon><polygon fill="rgb(225,119,25)" stroke="rgb(225,119,25)" points="438.72315216064453,60.996150732040405 353.36844635009766,134.88817030191422 397.9226989746094,72.28811979293823"></polygon><polygon fill="rgb(0,0,0)" stroke="rgb(0,0,0)" points="238.29406356811523,287.28677809238434 239.65406799316406,285.4934551715851 256.2509536743164,295.30081498622894"></polygon><polygon fill="rgb(0,0,0)" stroke="rgb(0,0,0)" points="256.2509536743164,295.30081498622894 258.47404861450195,299.32857489585876 238.29406356811523,287.28677809238434"></polygon><polygon fill="rgb(0,0,0)" stroke="rgb(0,0,0)" points="238.29406356811523,287.28677809238434 258.47404861450195,299.32857489585876 268.6571617126465,310.605703830719"></polygon><polygon fill="rgb(0,0,0)" stroke="rgb(0,0,0)" points="270.5717239379883,292.441281080246 276.19397735595703,311.8596293926239 268.6571617126465,310.605703830719"></polygon><polygon fill="rgb(0,0,0)" stroke="rgb(0,0,0)" points="267.2018394470215,287.83731639385223 256.2509536743164,295.30081498622894 239.65406799316406,285.4934551715851"></polygon><polygon fill="rgb(0,0,0)" stroke="rgb(0,0,0)" points="268.6571617126465,310.605703830719 258.47404861450195,299.32857489585876 270.5717239379883,292.441281080246"></polygon><polygon fill="rgb(0,0,0)" stroke="rgb(0,0,0)" points="256.2509536743164,295.30081498622894 267.2018394470215,287.83731639385223 270.5717239379883,292.441281080246"></polygon><polygon fill="rgb(0,0,0)" stroke="rgb(0,0,0)" points="270.5717239379883,292.441281080246 258.47404861450195,299.32857489585876 256.2509536743164,295.30081498622894"></polygon><polygon fill="rgb(119,57,0)" stroke="rgb(119,57,0)" points="457.9654426574707,210.00298154354095 466.42842292785645,190.43644757568836 469.8097629547119,197.66840548813343"></polygon><polygon fill="rgb(119,57,0)" stroke="rgb(119,57,0)" points="466.42842292785645,190.43644757568836 470.4170150756836,174.72865419089794 474.57043075561523,184.12167189642787"></polygon><polygon fill="rgb(119,57,0)" stroke="rgb(119,57,0)" points="478.5680866241455,169.74726159870625 470.4170150756836,174.72865419089794 474.76486587524414,161.714456230402"></polygon><polygon fill="rgb(119,57,0)" stroke="rgb(119,57,0)" points="410.4667453765869,111.85729813575745 473.50618743896484,111.20674085617065 474.76486587524414,161.714456230402"></polygon><polygon fill="rgb(119,57,0)" stroke="rgb(119,57,0)" points="438.72315216064453,60.996150732040405 473.50618743896484,111.20674085617065 410.4667453765869,111.85729813575745"></polygon></svg>