<?xml version="1.0" encoding="UTF-8" standalone="no" ?>
<!DOCTYPE svg PUBLIC "-//W3C//DTD SVG 1.1//EN" "http://www.w3.org/Graphics/SVG/1.1/DTD/svg11.dtd">
<svg xmlns="http://www.w3.org/2000/svg" xmlns:xlink="http://www.w3.org/1999/xlink" version="1.1" width="640" height="480" viewBox="0 0 640 480" xml:space="preserve">
<desc>Created with Fabric.js 3.6.3</desc>
<defs>
</defs>
<g transform="matrix(0.89 0 0 0.89 322.18 235.85)"  >
<linearGradient id="SVGID_1858" gradientUnits="userSpaceOnUse" gradientTransform="matrix(1 0 0 1 22.1 0.07)"  x1="0" y1="256.04677048298345" x2="531.7000000000002" y2="256.04677048298345">
<stop offset="2.927%" style="stop-color:rgba(17, 140, 79, 1);"/>
<stop offset="49.268%" style="stop-color:rgba(0, 0, 0, 1);"/>
<stop offset="85.854%" style="stop-color:rgba(255, 0, 0, 1);"/>
</linearGradient>
<path style="stroke: none; stroke-width: 1; stroke-dasharray: none; stroke-linecap: butt; stroke-dashoffset: 0; stroke-linejoin: miter; stroke-miterlimit: 4; fill: url(#SVGID_1858); fill-rule: nonzero; opacity: 1;"  transform=" translate(-287.95, -256.12)" d="M 82.5 98.9 c -0.6 -17.2 2 -33.8 12.7 -48.2 c 0.3 7.4 1.2 14.5 4.2 21.6 c 5.9 -27.5 19.7 -49.3 42.3 -65.5 c -1.9 5.9 -3.5 11.8 -3 17.7 c 8.7 -7.4 18.8 -17.8 44.4 -22.7 c 14.7 -2.8 29.7 -2 42.1 1 c 38.5 9.3 61 34.3 69.7 72.3 c 5.3 23.1 0.7 45 -8.3 66.4 c -5.2 12.4 -12 24.4 -20.7 35.1 c -2 -1.9 -3.9 -3.8 -5.8 -5.6 c -42.8 -40.8 -26.8 -25.2 -37.4 -37.4 c -1.1 -1.2 -1 -2.2 -0.1 -3.6 c 8.3 -13.5 11.8 -28.2 10 -44 c -1.1 -9.8 -4.3 -18.9 -11.3 -26.2 c -14.5 -15.3 -39.2 -15 -53.5 0.6 c -11.4 12.5 -14.1 27.4 -10.9 43.6 c 0.2 1.3 0.4 2.7 0 3.9 c -3.4 13.7 -4.6 27.6 -2.5 41.6 c 0.1 0.5 0.1 1.1 0.1 1.6 c 0 0.3 -0.1 0.5 -0.2 1.1 c -21.8 -11 -36 -28.3 -43.2 -52.2 c -8.3 17.8 -11.1 35.5 -6.6 54.1 c -15.6 -15.2 -21.3 -34.3 -22 -55.2 z m 469.6 123.2 c -11.6 -11.6 -25 -20.4 -40.1 -26.6 c -12.8 -5.2 -26 -7.9 -39.9 -7.1 c -10 0.6 -19.6 3.1 -29 6.4 c -2.5 0.9 -5.1 1.6 -7.7 2.2 c -4.9 1.2 -7.3 -3.1 -4.7 -6.8 c 3.2 -4.6 3.4 -4.2 15 -12 c 0.6 -0.4 1.2 -0.8 2.2 -1.5 h -2.5 c -0.6 0 -1.2 0.2 -1.9 0.3 c -19.3 3.3 -30.7 15.5 -48.9 29.6 c -10.4 8.1 -13.8 3.8 -12 -0.5 c 1.4 -3.5 3.3 -6.7 5.1 -10 c 1 -1.8 2.3 -3.4 3.5 -5.1 c -0.2 -0.2 -0.5 -0.3 -0.7 -0.5 c -27 18.3 -46.7 42.4 -57.7 73.3 c 0.3 0.3 0.7 0.6 1 0.9 c 0.3 -0.6 0.5 -1.2 0.9 -1.7 c 10.4 -12.1 22.8 -21.8 36.6 -29.8 c 18.2 -10.6 37.5 -18.3 58.7 -20.2 c 4.3 -0.4 8.7 -0.1 13.1 -0.1 c -1.8 0.7 -3.5 0.9 -5.3 1.1 c -18.5 2.4 -35.5 9 -51.5 18.5 c -30.2 17.9 -54.5 42.2 -75.1 70.4 c -0.3 0.4 -0.4 0.9 -0.7 1.3 c 14.5 5.3 24 17.3 36.1 25.6 c 0.2 -0.1 0.3 -0.2 0.4 -0.4 l 1.2 -2.7 c 12.2 -26.9 27 -52.3 46.7 -74.5 c 16.7 -18.8 38 -25.3 62.5 -20 c 5.9 1.3 11.4 4.4 17.2 6.8 c 2.3 -1.4 5.1 -3.2 8 -4.7 c 8.4 -4.3 17.4 -7 26.7 -9 c 14.7 -3.1 29.5 -4.9 44.5 -1.3 v -0.5 c -0.5 -0.4 -1.2 -0.8 -1.7 -1.4 z M 316.7 397.6 c -39.4 -33 -22.8 -19.5 -42.7 -35.6 c -0.8 0.9 0 -0.2 -1.9 3 c -11.2 19.1 -25.5 35.3 -44 47.6 c -10.3 6.8 -21.5 11.8 -34.1 11.8 c -21.6 0 -38.2 -9.5 -49.4 -27.8 c -12 -19.5 -13.3 -40.7 -8.2 -62.6 c 7.8 -33.8 30.1 -55.2 38.6 -64.3 c -18.7 -6.2 -33 1.7 -46.4 13.9 c 0.8 -13.9 4.3 -26.2 11.8 -37.3 c -24.3 10.6 -45.9 25 -64.8 43.9 c -0.3 -5.8 5.4 -43.7 5.6 -44.7 c 0.3 -2.7 -0.6 -5.3 -3 -7.4 c -24.2 24.7 -44.5 51.8 -56.1 84.6 c 7.4 -5.9 14.9 -11.4 23.6 -16.2 c -8.3 22.3 -19.6 52.8 -7.8 101.1 c 4.6 19 11.9 36.8 24.1 52.3 c 2.9 3.7 6.3 6.9 9.5 10.3 c 0.2 -0.2 0.4 -0.3 0.6 -0.5 c -1.4 -7 -2.2 -14.1 -1.5 -21.9 c 2.2 3.2 3.9 6 5.9 8.6 c 12.6 16 28.7 27.4 47.2 35.6 c 25 11.3 51.1 13.3 77.9 8.6 c 54.9 -9.7 90.7 -48.6 116 -98.8 c 1 -1.8 0.6 -2.9 -0.9 -4.2 z m 172 -46.4 c -9.5 -3.1 -22.2 -4.2 -28.7 -2.9 c 9.9 4 14.1 6.6 18.8 12 c 12.6 14.4 10.4 34.7 -5.4 45.6 c -11.7 8.1 -24.9 10.5 -38.9 9.1 c -1.2 -0.1 -2.3 -0.4 -3 -0.6 c 2.8 -3.7 6 -7 8.1 -10.8 c 9.4 -16.8 5.4 -42.1 -8.7 -56.1 c -2.1 -2.1 -4.6 -3.9 -7 -5.9 c -0.3 1.3 -0.1 2.1 0.1 2.8 c 4.2 16.6 -8.1 32.4 -24.8 31.8 c -7.6 -0.3 -13.9 -3.8 -19.6 -8.5 c -19.5 -16.1 -39.1 -32.1 -58.5 -48.3 c -5.9 -4.9 -12.5 -8.1 -20.1 -8.7 c -4.6 -0.4 -9.3 -0.6 -13.9 -0.9 c -5.9 -0.4 -8.8 -2.8 -10.4 -8.4 c -0.9 -3.4 -1.5 -6.8 -2.2 -10.2 c -1.5 -8.1 -6.2 -13 -14.3 -14.2 c -4.4 -0.7 -8.9 -1 -13.3 -1.5 c -13 -1.4 -19.8 -7.4 -22.6 -20.3 c -5 11 -1.6 22.4 7.3 29.9 c 4.5 3.8 9.3 7.3 13.8 11.2 c 4.6 3.8 7.4 8.7 7.9 14.8 c 0.4 4.7 0.8 9.5 1.8 14.1 c 2.2 10.6 8.9 18.4 17 25.1 c 16.5 13.7 33 27.3 49.5 41.1 c 17.9 15 13.9 32.8 13 56 c -0.9 22.9 12.2 42.9 33.5 51.2 c 1 0.4 2 0.6 3.6 1.1 c -15.7 -18.2 -10.1 -44.1 0.7 -52.3 c 0.3 2.2 0.4 4.3 0.9 6.4 c 9.4 44.1 45.4 64.2 85 56.9 c 16 -2.9 30.6 -8.9 42.9 -19.8 c 2 -1.8 3.7 -4.1 5.9 -6.5 c -19.3 4.6 -35.8 0.1 -50.9 -10.6 c 0.7 -0.3 1.3 -0.3 1.9 -0.3 c 21.3 1.8 40.6 -3.4 57 -17.4 c 19.5 -16.6 26.6 -42.9 17.4 -66 c -8.3 -20.1 -23.6 -32.3 -43.8 -38.9 z M 99.4 179.3 c -5.3 -9.2 -13.2 -15.6 -22.1 -21.3 c 13.7 -0.5 26.6 0.2 39.6 3.7 c -7 -12.2 -8.5 -24.7 -5 -38.7 c 5.3 11.9 13.7 20.1 23.6 26.8 c 19.7 13.2 35.7 19.6 46.7 30.2 c 3.4 3.3 6.3 7.1 9.6 10.9 c -0.8 -2.1 -1.4 -4.1 -2.2 -6 c -5 -10.6 -13 -18.6 -22.6 -25 c -1.8 -1.2 -2.8 -2.5 -3.4 -4.5 c -3.3 -12.5 -3 -25.1 -0.7 -37.6 c 1 -5.5 2.8 -10.9 4.5 -16.3 c 0.8 -2.4 2.3 -4.6 4 -6.6 c 0.6 6.9 0 25.5 19.6 46 c 10.8 11.3 22.4 21.9 33.9 32.7 c 9 8.5 18.3 16.7 25.5 26.8 c 1.1 1.6 2.2 3.3 3.8 4.7 c -5 -13 -14.2 -24.1 -24.2 -33.8 c -9.6 -9.3 -19.4 -18.4 -29.2 -27.4 c -3.3 -3 -4.6 -6.7 -5.1 -10.9 c -1.2 -10.4 0 -20.6 4.3 -30.2 c 0.5 -1 1.1 -2 1.9 -3.3 c 0.5 4.2 0.6 7.9 1.4 11.6 c 4.8 23.1 20.4 36.3 49.3 63.5 c 10 9.4 19.3 19.2 25.6 31.6 c 4.8 9.3 7.3 19 5.7 29.6 c -0.1 0.6 0.5 1.7 1.1 2 c 6.2 2.6 10 6.9 9.7 14.3 c 7.7 -2.6 12.5 -8 16.4 -14.5 c 4.2 20.2 -9.1 50.3 -27.2 58.7 c 0.4 -4.5 5 -23.4 -16.5 -27.7 c -6.8 -1.3 -12.8 -1.3 -22.9 -2.1 c 4.7 -9 10.4 -20.6 0.5 -22.4 c -24.9 -4.6 -52.8 1.9 -57.8 4.6 c 8.2 0.4 16.3 1 23.5 3.3 c -2 6.5 -4 12.7 -5.8 18.9 c -1.9 6.5 2.1 14.6 9.3 9.6 c 1.2 -0.9 2.3 -1.9 3.3 -2.7 c -3.1 17.9 -2.9 15.9 -2.8 18.3 c 0.3 10.2 9.5 7.8 15.7 7.3 c -2.5 11.8 -29.5 27.3 -45.4 25.8 c 7 -4.7 12.7 -10.3 15.9 -17.9 c -6.5 0.8 -12.9 1.6 -19.2 2.4 l -0.3 -0.9 c 4.7 -3.4 8 -7.8 10.2 -13.1 c 8.7 -21.1 -3.6 -38 -25 -39.9 c -9.1 -0.8 -17.8 0.8 -25.9 5.5 c 6.2 -15.6 17.2 -26.6 32.6 -34.5 c -15.2 -4.3 -8.9 -2.7 -24.6 -6.3 c 14.6 -9.3 30.2 -13.2 46.5 -14.6 c -5.2 -3.2 -48.1 -3.6 -70.2 20.9 c 7.9 1.4 15.5 2.8 23.2 4.2 c -23.8 7 -44 19.7 -62.4 35.6 c 1.1 -4.8 2.7 -9.5 3.3 -14.3 c 0.6 -4.5 0.8 -9.2 0.1 -13.6 c -1.5 -9.4 -8.9 -15.1 -19.7 -16.3 c -7.9 -0.9 -15.6 0.1 -23.3 1.3 c -0.9 0.1 -1.7 0.3 -2.9 0 c 15.8 -14.8 36 -21.7 53.1 -33.5 c 6 -4.5 6.8 -8.2 3 -14.9 z m 128.4 26.8 c 3.3 16 12.6 25.5 23.8 24.3 c -4.6 -11.3 -12.1 -19.5 -23.8 -24.3 z" stroke-linecap="round" />
</g>
<g transform="matrix(0.21 0 0 0.21 437.55 396.95)"  >
<linearGradient id="SVGID_1189" gradientUnits="userSpaceOnUse" gradientTransform="matrix(1 0 0 1 0 0)"  x1="0" y1="256" x2="638.2294920659833" y2="256">
<stop offset="0%" style="stop-color:rgba(255, 255, 250, 1);"/>
<stop offset="20%" style="stop-color:rgba(255, 255, 255, 1);"/>
<stop offset="100%" style="stop-color:rgba(233, 255, 0, 1);"/>
</linearGradient>
<path style="stroke: none; stroke-width: 1; stroke-dasharray: none; stroke-linecap: butt; stroke-dashoffset: 0; stroke-linejoin: miter; stroke-miterlimit: 4; fill: url(#SVGID_1189); fill-rule: nonzero; opacity: 1;"  transform=" translate(-319.11, -256)" d="M 447.1 224 c 0 -12.56 -4.781 -25.13 -14.35 -34.76 l -174.9 -174.9 C 249.1 4.786 236.5 0 223.1 0 C 211.4 0 198.9 4.786 189.2 14.35 L 14.35 189.2 C 4.783 198.9 -0.0011 211.4 -0.0011 223.1 c 0 12.56 4.785 25.17 14.35 34.8 l 174.9 174.9 c 9.625 9.562 22.19 14.35 34.75 14.35 s 25.13 -4.783 34.75 -14.35 l 174.9 -174.9 C 443.2 249.1 447.1 236.6 447.1 224 z M 96 248 c -13.25 0 -23.1 -10.75 -23.1 -23.1 s 10.75 -23.1 23.1 -23.1 S 120 210.8 120 224 S 109.3 248 96 248 z M 224 376 c -13.25 0 -23.1 -10.75 -23.1 -23.1 s 10.75 -23.1 23.1 -23.1 s 23.1 10.75 23.1 23.1 S 237.3 376 224 376 z M 224 248 c -13.25 0 -23.1 -10.75 -23.1 -23.1 s 10.75 -23.1 23.1 -23.1 S 248 210.8 248 224 S 237.3 248 224 248 z M 224 120 c -13.25 0 -23.1 -10.75 -23.1 -23.1 s 10.75 -23.1 23.1 -23.1 s 23.1 10.75 23.1 23.1 S 237.3 120 224 120 z M 352 248 c -13.25 0 -23.1 -10.75 -23.1 -23.1 s 10.75 -23.1 23.1 -23.1 s 23.1 10.75 23.1 23.1 S 365.3 248 352 248 z M 591.1 192 l -118.7 0 c 4.418 10.27 6.604 21.25 6.604 32.23 c 0 20.7 -7.865 41.38 -23.63 57.14 l -136.2 136.2 v 46.37 C 320 490.5 341.5 512 368 512 h 223.1 c 26.5 0 47.1 -21.5 47.1 -47.1 V 240 C 639.1 213.5 618.5 192 591.1 192 z M 479.1 376 c -13.25 0 -23.1 -10.75 -23.1 -23.1 s 10.75 -23.1 23.1 -23.1 s 23.1 10.75 23.1 23.1 S 493.2 376 479.1 376 z" stroke-linecap="round" />
</g>
<g transform="matrix(1 0 0 1 287 278)"  >
<path style="stroke: rgb(76,44,44); stroke-width: 1; stroke-dasharray: none; stroke-linecap: round; stroke-dashoffset: 0; stroke-linejoin: round; stroke-miterlimit: 10; fill: none; fill-rule: nonzero; opacity: 1;"  transform=" translate(-287, -278)" d="M 286.999 278 L 287.001 278" stroke-linecap="round" />
</g>
<g transform="matrix(1 0 0 1 220 181)"  >
<path style="stroke: rgb(76,44,44); stroke-width: 1; stroke-dasharray: none; stroke-linecap: round; stroke-dashoffset: 0; stroke-linejoin: round; stroke-miterlimit: 10; fill: none; fill-rule: nonzero; opacity: 1;"  transform=" translate(-220, -181)" d="M 219.999 181 L 220.001 181" stroke-linecap="round" />
</g>
</svg>