<?xml version="1.0" encoding="UTF-8" standalone="no" ?>
<!DOCTYPE svg PUBLIC "-//W3C//DTD SVG 1.1//EN" "http://www.w3.org/Graphics/SVG/1.1/DTD/svg11.dtd">
<svg xmlns="http://www.w3.org/2000/svg" xmlns:xlink="http://www.w3.org/1999/xlink" version="1.1" width="240" height="180" viewBox="0 0 640 480" xml:space="preserve">
<desc>Created with Fabric.js 3.6.3</desc>
<defs>
</defs>
<g transform="matrix(0.9 0 0 0.9 320.09 240.1)"  >
<path style="stroke: none; stroke-width: 1; stroke-dasharray: none; stroke-linecap: butt; stroke-dashoffset: 0; stroke-linejoin: miter; stroke-miterlimit: 4; fill: rgb(17,140,79); fill-rule: nonzero; opacity: 1;"  transform=" translate(-319.2, -256)" d="M 18.43 255.8 L 192 224 L 100.8 292.6 C 90.67 302.8 97.8 320 112 320 h 222.7 c -9.499 -26.5 -14.75 -54.5 -14.75 -83.38 V 194.2 L 200.3 106.8 C 176.5 90.88 145 92.75 123.3 111.2 l -117.5 116.4 C -6.562 238 2.436 258 18.43 255.8 z M 575.2 289.9 l -100.7 -50.25 c -16.25 -8.125 -26.5 -24.75 -26.5 -43 V 160 h 63.99 l 28.12 22.62 C 546.1 188.6 554.2 192 562.7 192 h 30.1 c 11.1 0 23.12 -6.875 28.5 -17.75 l 14.37 -28.62 c 5.374 -10.87 4.25 -23.75 -2.999 -33.5 l -74.49 -99.37 C 552.1 4.75 543.5 0 533.5 0 H 296 C 288.9 0 285.4 8.625 290.4 13.62 L 351.1 64 L 292.4 88.75 c -5.874 3 -5.874 11.37 0 14.37 L 351.1 128 l -0.0011 108.6 c 0 72 35.99 139.4 95.99 179.4 c -195.6 6.75 -344.4 41 -434.1 60.88 c -8.124 1.75 -13.87 9 -13.87 17.38 C 0.0463 504 8.045 512 17.79 512 h 499.1 c 63.24 0 119.6 -47.5 122.1 -110.8 C 642.3 354 617.1 310.9 575.2 289.9 z M 489.1 66.25 l 45.74 11.38 c -2.75 11 -12.5 18.88 -24.12 18.25 C 497.7 95.25 484.8 83.38 489.1 66.25 z" stroke-linecap="round" />
</g>
</svg>