<svg id="svg" version="1.1" xmlns="http://www.w3.org/2000/svg" xmlns:xlink="http://www.w3.org/1999/xlink" width="400" height="400" viewBox="0, 0, 400,400"><g id="svgg"><path id="path0" d="M0.000 200.000 L 0.000 400.000 200.000 400.000 L 400.000 400.000 400.000 200.000 L 400.000 0.000 200.000 0.000 L 0.000 0.000 0.000 200.000 M213.159 152.307 C 214.108 153.008,214.908 153.200,216.884 153.200 C 219.139 153.201,222.651 154.118,223.448 154.915 C 223.605 155.072,224.198 155.203,224.767 155.206 C 225.979 155.213,226.569 155.556,226.895 156.443 C 227.035 156.824,227.816 157.196,228.806 157.355 C 230.003 157.546,230.540 157.848,230.687 158.411 C 230.821 158.923,231.234 159.200,231.865 159.200 C 232.399 159.200,233.286 159.650,233.836 160.200 C 234.386 160.750,235.143 161.205,235.518 161.212 C 238.109 161.256,240.248 167.517,238.100 168.768 C 237.475 169.132,237.496 169.177,238.300 169.188 C 238.916 169.196,239.200 168.965,239.200 168.454 C 239.200 166.962,240.735 165.600,242.415 165.600 C 244.611 165.600,245.247 166.789,243.816 168.221 C 242.474 169.562,242.467 171.030,243.800 171.364 C 244.446 171.526,244.800 171.896,244.800 172.408 C 244.800 173.043,245.071 173.200,246.171 173.200 C 247.955 173.200,248.800 174.090,248.800 175.967 C 248.800 178.567,246.315 179.641,245.460 177.411 C 245.322 177.053,244.734 176.800,244.041 176.800 C 242.897 176.800,241.600 175.935,241.600 175.171 C 241.600 174.967,241.428 174.800,241.218 174.800 C 240.712 174.800,238.800 176.727,238.800 177.237 C 238.800 177.458,238.337 178.067,237.771 178.592 C 237.021 179.287,236.783 179.851,236.894 180.673 L 237.046 181.800 237.513 180.700 C 237.801 180.022,238.287 179.600,238.781 179.600 C 240.748 179.600,241.520 183.796,239.700 184.595 C 238.378 185.175,238.448 187.611,239.826 188.989 C 241.094 190.258,241.033 192.010,239.700 192.595 C 239.037 192.886,238.800 193.326,238.800 194.266 C 238.800 196.199,237.931 196.800,235.136 196.800 C 233.180 196.800,232.602 196.956,232.054 197.632 C 231.684 198.090,230.755 198.611,229.990 198.791 L 228.600 199.118 229.926 199.159 C 231.777 199.216,232.800 199.861,232.800 200.971 C 232.800 201.490,233.070 202.018,233.400 202.145 C 234.234 202.465,234.149 203.295,233.200 204.107 C 232.760 204.484,232.400 205.054,232.400 205.373 C 232.400 205.693,232.053 206.198,231.629 206.495 C 231.141 206.836,230.811 207.616,230.729 208.617 C 230.632 209.804,230.375 210.299,229.700 210.595 C 229.169 210.828,228.800 211.342,228.800 211.848 C 228.800 212.320,228.485 212.811,228.100 212.939 C 227.715 213.066,226.927 213.556,226.350 214.026 C 225.204 214.959,223.600 214.586,223.600 213.386 C 223.600 213.029,223.212 212.800,222.608 212.800 C 221.862 212.800,221.543 212.526,221.325 211.700 L 221.035 210.600 220.765 211.800 C 220.168 214.452,220.317 215.083,221.600 215.340 C 222.459 215.512,222.800 215.810,222.800 216.390 C 222.800 216.836,223.064 217.200,223.386 217.200 C 223.708 217.200,224.158 217.548,224.386 217.974 C 225.705 220.439,222.283 221.919,220.164 219.800 C 219.614 219.250,218.833 218.800,218.428 218.800 C 218.023 218.800,217.397 218.350,217.037 217.800 C 216.584 217.108,216.019 216.800,215.205 216.800 C 213.690 216.800,213.213 215.899,213.154 212.926 C 213.110 210.711,213.094 210.675,212.806 212.167 C 212.640 213.029,212.186 213.967,211.797 214.252 C 211.407 214.537,210.885 215.181,210.635 215.685 C 209.863 217.242,205.901 217.178,205.400 215.599 C 205.236 215.084,204.794 214.800,204.155 214.800 C 203.610 214.800,202.714 214.350,202.164 213.800 C 201.614 213.250,200.843 212.800,200.452 212.800 C 200.060 212.800,199.317 212.350,198.800 211.800 C 198.283 211.250,197.547 210.800,197.163 210.800 C 195.934 210.800,195.200 210.335,195.200 209.557 C 195.200 209.059,194.918 208.800,194.374 208.800 C 193.025 208.800,191.968 208.022,191.369 206.588 C 191.013 205.735,190.292 204.996,189.403 204.575 C 188.631 204.208,188.000 203.754,188.000 203.565 C 188.000 203.375,187.460 202.941,186.800 202.600 C 186.140 202.259,185.600 201.714,185.600 201.390 C 185.600 201.065,185.237 200.800,184.791 200.800 C 184.317 200.800,183.794 200.387,183.527 199.800 C 183.277 199.250,182.744 198.800,182.343 198.800 C 181.900 198.800,181.517 198.409,181.364 197.800 C 181.206 197.169,180.831 196.800,180.348 196.800 C 179.920 196.800,179.382 196.359,179.127 195.800 C 178.877 195.250,178.354 194.800,177.965 194.800 C 177.576 194.800,176.930 194.394,176.529 193.898 C 176.128 193.402,175.305 192.776,174.700 192.507 C 174.095 192.237,173.600 191.763,173.600 191.452 C 173.600 191.141,173.162 190.777,172.627 190.642 C 172.091 190.508,171.545 190.058,171.413 189.642 C 171.281 189.227,170.806 188.790,170.357 188.673 C 169.908 188.555,169.443 188.086,169.324 187.630 C 169.200 187.156,168.779 186.800,168.343 186.800 C 167.897 186.800,167.422 186.384,167.200 185.800 C 166.991 185.250,166.534 184.800,166.184 184.800 C 165.835 184.800,165.007 184.305,164.344 183.700 C 163.681 183.095,162.703 182.203,162.169 181.718 C 160.521 180.218,160.992 175.200,162.782 175.200 C 162.961 175.200,163.204 174.827,163.324 174.370 C 163.443 173.914,163.914 173.443,164.370 173.324 C 164.844 173.200,165.200 172.779,165.200 172.343 C 165.200 171.897,165.616 171.422,166.200 171.200 C 166.750 170.991,167.200 170.534,167.200 170.184 C 167.200 169.835,167.695 169.007,168.300 168.344 C 168.905 167.681,169.791 166.708,170.269 166.182 C 170.747 165.656,171.251 164.869,171.389 164.433 C 171.528 163.997,171.992 163.530,172.421 163.393 C 172.850 163.257,173.386 162.799,173.613 162.376 C 173.865 161.904,174.641 161.507,175.613 161.352 C 176.544 161.203,177.200 160.877,177.200 160.563 C 177.200 159.931,178.435 159.200,179.502 159.200 C 179.916 159.200,180.647 158.750,181.125 158.200 C 181.603 157.650,182.309 157.200,182.693 157.200 C 183.077 157.200,184.159 156.351,185.098 155.314 L 186.805 153.428 190.542 153.214 C 192.840 153.082,194.534 152.788,194.942 152.449 C 196.857 150.857,211.049 150.746,213.159 152.307 M197.880 157.749 C 197.039 158.377,196.015 158.624,193.780 158.737 L 190.800 158.887 190.800 160.860 C 190.800 162.275,191.053 163.175,191.695 164.042 C 192.466 165.086,192.610 165.865,192.742 169.706 C 192.870 173.456,193.027 174.339,193.735 175.298 C 194.434 176.243,194.619 177.231,194.823 181.118 C 194.969 183.917,195.099 184.835,195.144 183.400 C 195.236 180.490,195.858 177.627,196.577 176.806 C 196.925 176.409,197.169 174.643,197.284 171.693 C 197.435 167.837,197.588 167.012,198.344 165.990 C 199.138 164.916,199.216 164.393,199.114 160.853 L 199.000 156.911 197.880 157.749 M205.596 157.700 C 205.196 158.304,204.934 160.067,204.800 163.068 C 204.632 166.822,204.462 167.721,203.737 168.701 C 203.001 169.696,202.854 170.518,202.737 174.301 C 202.618 178.146,202.480 178.898,201.700 179.952 C 200.913 181.015,200.808 181.609,200.860 184.684 C 200.893 186.618,200.995 187.701,201.087 187.091 C 201.179 186.481,201.692 185.696,202.227 185.345 C 202.816 184.960,203.200 184.324,203.200 183.736 C 203.200 183.201,203.650 182.314,204.200 181.764 C 204.750 181.214,205.200 180.404,205.200 179.964 C 205.200 179.524,205.650 178.714,206.200 178.164 C 206.750 177.614,207.200 176.916,207.200 176.613 C 207.200 176.309,207.623 175.553,208.139 174.931 C 208.656 174.309,209.204 173.286,209.357 172.658 C 209.511 172.030,209.968 171.429,210.373 171.323 C 210.865 171.194,211.191 170.616,211.357 169.578 C 211.511 168.614,211.908 167.863,212.403 167.599 C 212.843 167.363,213.200 166.761,213.200 166.256 C 213.200 165.752,213.650 164.917,214.200 164.400 C 214.750 163.883,215.200 163.155,215.200 162.781 C 215.200 162.407,215.462 161.358,215.782 160.450 L 216.365 158.800 214.682 158.798 C 212.456 158.795,210.010 158.091,209.735 157.375 C 209.355 156.385,206.309 156.625,205.596 157.700 M222.800 161.758 C 222.800 162.285,222.353 163.140,221.807 163.658 C 221.261 164.176,220.811 164.984,220.807 165.454 C 220.803 165.924,220.362 166.595,219.826 166.946 C 219.190 167.363,218.808 168.039,218.726 168.892 C 218.639 169.792,218.319 170.323,217.700 170.595 C 217.074 170.870,216.800 171.332,216.800 172.114 C 216.800 172.799,216.410 173.600,215.800 174.165 C 215.250 174.675,214.800 175.410,214.800 175.800 C 214.800 176.190,214.364 176.912,213.831 177.406 C 213.298 177.900,212.803 178.821,212.731 179.452 C 212.636 180.288,212.355 180.635,211.700 180.728 C 210.995 180.828,210.800 181.116,210.800 182.054 C 210.800 183.550,210.156 184.800,209.386 184.800 C 209.025 184.800,208.800 185.191,208.800 185.818 C 208.800 186.378,208.350 187.286,207.800 187.836 C 207.250 188.386,206.800 189.207,206.800 189.661 C 206.800 190.114,206.350 190.839,205.800 191.271 C 205.250 191.704,204.800 192.390,204.800 192.796 C 204.800 194.065,204.344 194.800,203.557 194.800 C 202.983 194.800,202.800 195.089,202.800 196.000 C 202.800 197.314,203.567 197.604,204.397 196.604 C 204.901 195.996,206.601 196.137,207.380 196.852 C 207.589 197.043,208.161 197.200,208.651 197.200 C 210.285 197.200,210.796 198.204,210.853 201.529 C 210.890 203.686,210.979 204.184,211.153 203.200 C 211.315 202.278,211.708 201.665,212.300 201.405 C 212.859 201.160,213.200 200.661,213.200 200.087 C 213.200 199.579,213.650 198.714,214.200 198.164 C 214.750 197.614,215.200 196.838,215.200 196.440 C 215.200 196.042,215.650 195.231,216.200 194.638 C 216.750 194.044,217.200 193.212,217.200 192.789 C 217.200 192.365,217.650 191.724,218.200 191.363 C 218.813 190.962,219.200 190.331,219.200 189.736 C 219.200 189.201,219.650 188.314,220.200 187.764 C 220.750 187.214,221.200 186.404,221.200 185.964 C 221.200 185.524,221.650 184.714,222.200 184.164 C 222.750 183.614,223.200 182.916,223.200 182.613 C 223.200 182.309,223.623 181.553,224.139 180.931 C 224.656 180.309,225.204 179.286,225.357 178.658 C 225.511 178.030,225.968 177.429,226.373 177.323 C 226.865 177.194,227.191 176.616,227.357 175.578 C 227.511 174.614,227.908 173.863,228.403 173.599 C 228.843 173.363,229.200 172.761,229.200 172.256 C 229.200 171.752,229.650 170.917,230.200 170.400 C 230.750 169.883,231.200 169.145,231.200 168.759 C 231.200 168.373,231.483 167.774,231.829 167.429 C 232.174 167.083,232.284 166.800,232.072 166.800 C 231.860 166.800,231.574 166.350,231.436 165.800 C 231.251 165.063,230.919 164.800,230.174 164.800 C 229.618 164.800,228.714 164.350,228.164 163.800 C 227.614 163.250,226.825 162.800,226.411 162.800 C 225.997 162.800,225.304 162.350,224.871 161.800 C 223.855 160.507,222.800 160.486,222.800 161.758 M182.800 163.800 C 182.558 164.437,182.109 164.800,181.563 164.800 C 180.557 164.800,177.833 167.049,178.408 167.405 C 178.623 167.538,178.800 167.988,178.800 168.405 C 178.800 168.822,179.250 169.614,179.800 170.164 C 180.350 170.714,180.800 171.622,180.800 172.182 C 180.800 172.742,180.967 173.200,181.171 173.200 C 181.935 173.200,182.800 174.497,182.800 175.641 C 182.800 176.404,183.049 176.917,183.500 177.083 C 184.380 177.408,184.786 177.991,184.794 178.942 C 184.797 179.351,185.250 180.039,185.800 180.471 C 186.460 180.990,186.800 181.656,186.800 182.429 C 186.800 183.182,187.006 183.600,187.376 183.600 C 188.110 183.600,188.484 184.213,188.831 185.986 C 189.012 186.912,189.124 185.930,189.154 183.143 C 189.190 179.828,189.076 178.838,188.639 178.670 C 187.873 178.376,187.200 174.977,187.200 171.403 C 187.200 169.237,186.998 168.092,186.444 167.123 C 186.029 166.395,185.570 165.125,185.426 164.300 C 185.098 162.427,183.442 162.111,182.800 163.800 M236.800 170.567 C 236.800 172.059,236.387 172.800,235.557 172.800 C 234.914 172.800,234.807 173.086,234.846 174.700 C 234.872 175.745,234.969 176.240,235.062 175.800 C 235.155 175.360,235.318 174.595,235.423 174.100 C 235.544 173.534,235.909 173.200,236.408 173.200 C 237.080 173.200,237.200 172.928,237.200 171.400 C 237.200 170.410,237.110 169.600,237.000 169.600 C 236.890 169.600,236.800 170.035,236.800 170.567 M172.825 171.526 C 172.811 172.035,172.305 172.993,171.700 173.656 C 171.095 174.319,170.218 175.282,169.752 175.797 C 169.285 176.312,168.790 177.185,168.652 177.737 C 168.513 178.289,168.085 178.824,167.700 178.924 C 167.048 179.095,167.049 179.110,167.717 179.154 C 168.111 179.179,168.831 179.579,169.317 180.042 C 169.803 180.505,170.650 181.177,171.200 181.535 C 171.750 181.893,172.435 182.504,172.723 182.893 C 173.010 183.282,173.493 183.600,173.796 183.600 C 174.098 183.600,174.454 183.941,174.586 184.357 C 174.718 184.773,175.194 185.210,175.643 185.327 C 176.092 185.445,176.557 185.914,176.676 186.370 C 176.800 186.844,177.221 187.200,177.657 187.200 C 178.103 187.200,178.578 187.616,178.800 188.200 C 179.009 188.750,179.441 189.200,179.759 189.200 C 180.078 189.200,180.937 189.741,181.669 190.403 C 184.453 192.920,184.851 193.200,185.643 193.200 C 186.383 193.200,186.400 193.143,185.829 192.571 C 185.483 192.226,185.200 191.627,185.200 191.241 C 185.200 190.855,184.750 190.117,184.200 189.600 C 183.650 189.083,183.200 188.285,183.200 187.826 C 183.200 187.368,182.842 186.769,182.405 186.496 C 181.932 186.201,181.508 185.363,181.359 184.434 C 181.188 183.366,180.869 182.807,180.352 182.671 C 179.896 182.552,179.496 181.978,179.346 181.229 C 179.209 180.545,178.673 179.583,178.155 179.092 C 177.638 178.602,177.211 177.893,177.207 177.518 C 177.203 177.143,176.750 176.386,176.200 175.836 C 175.650 175.286,175.200 174.399,175.200 173.865 C 175.200 173.230,174.923 172.821,174.401 172.684 C 173.962 172.569,173.433 172.053,173.226 171.538 L 172.851 170.600 172.825 171.526 M232.800 177.767 C 232.800 178.298,232.584 178.805,232.320 178.893 C 232.020 178.993,232.095 179.151,232.520 179.314 C 233.013 179.503,233.200 179.366,233.200 178.816 C 233.200 178.399,233.483 177.774,233.829 177.429 C 234.400 176.857,234.382 176.800,233.629 176.800 C 233.019 176.800,232.800 177.056,232.800 177.767 M230.731 181.226 C 230.629 182.297,230.402 182.628,229.700 182.728 C 228.995 182.828,228.800 183.116,228.800 184.054 C 228.800 185.550,228.156 186.800,227.386 186.800 C 227.025 186.800,226.800 187.191,226.800 187.818 C 226.800 188.378,226.350 189.286,225.800 189.836 C 225.250 190.386,224.800 191.207,224.800 191.661 C 224.800 192.114,224.361 192.830,223.825 193.252 C 223.230 193.720,222.801 194.523,222.725 195.310 C 222.629 196.296,222.388 196.630,221.700 196.728 C 220.971 196.831,220.800 197.110,220.800 198.199 C 220.800 199.477,219.972 200.800,219.171 200.800 C 218.967 200.800,218.800 201.258,218.800 201.818 C 218.800 202.378,218.350 203.286,217.800 203.836 C 217.250 204.386,216.797 205.143,216.793 205.518 C 216.789 205.893,216.339 206.624,215.793 207.142 C 214.595 208.279,214.508 209.200,215.600 209.200 C 216.040 209.200,216.400 209.034,216.400 208.831 C 216.400 208.628,217.030 208.254,217.800 208.000 C 218.871 207.647,219.200 207.317,219.200 206.600 C 219.200 206.084,219.650 205.127,220.200 204.473 C 220.750 203.819,221.200 203.098,221.200 202.871 C 221.200 202.018,222.507 201.199,223.929 201.160 C 225.199 201.126,225.263 201.082,224.400 200.844 C 223.498 200.594,223.388 200.336,223.278 198.221 C 223.138 195.513,223.397 195.215,225.900 195.206 C 226.835 195.203,227.600 195.025,227.600 194.810 C 227.600 194.206,229.813 193.206,231.280 193.147 L 232.600 193.095 231.200 192.847 C 230.278 192.685,229.665 192.292,229.405 191.700 C 229.188 191.205,228.789 190.800,228.519 190.800 C 227.085 190.800,226.981 187.850,228.399 187.400 C 228.976 187.217,229.187 186.709,229.279 185.280 C 229.380 183.709,229.541 183.380,230.258 183.278 C 231.168 183.148,231.742 181.276,231.160 180.336 C 230.984 180.051,230.808 180.416,230.731 181.226 M234.893 184.000 C 234.893 184.770,234.975 185.085,235.076 184.700 C 235.176 184.315,235.176 183.685,235.076 183.300 C 234.975 182.915,234.893 183.230,234.893 184.000 M198.728 203.767 C 198.585 204.995,198.682 205.156,199.684 205.357 C 200.464 205.513,200.800 205.824,200.800 206.390 C 200.800 206.982,201.063 207.200,201.774 207.200 C 203.220 207.200,204.800 207.902,204.800 208.545 C 204.800 209.646,207.095 209.554,208.193 208.408 C 209.653 206.884,209.579 206.840,205.300 206.714 L 201.400 206.600 201.268 205.400 C 201.145 204.286,199.829 202.400,199.174 202.400 C 199.016 202.400,198.816 203.015,198.728 203.767 " stroke="none" fill="#fcfbfc" fill-rule="evenodd"></path><path id="path1" d="M201.765 152.758 C 201.086 152.931,200.332 153.195,200.091 153.344 C 199.849 153.493,197.504 153.881,194.880 154.206 C 189.806 154.834,187.209 155.732,185.658 157.392 C 185.140 157.946,184.478 158.400,184.187 158.400 C 183.895 158.400,183.408 158.649,183.103 158.954 C 182.584 159.473,180.935 160.442,177.725 162.114 C 175.584 163.229,173.122 165.120,172.430 166.181 C 172.084 166.712,169.804 169.544,167.364 172.474 C 161.170 179.910,160.705 178.248,171.488 187.214 C 176.060 191.016,180.212 194.548,180.716 195.063 C 181.220 195.578,181.760 196.002,181.916 196.003 C 182.072 196.005,182.830 196.595,183.600 197.314 C 184.370 198.033,186.371 199.734,188.047 201.093 C 189.723 202.453,191.908 204.470,192.902 205.575 C 193.896 206.681,195.134 207.775,195.654 208.007 C 196.174 208.239,197.590 209.047,198.800 209.804 C 200.010 210.560,201.720 211.555,202.600 212.014 C 203.480 212.473,204.830 213.198,205.600 213.624 C 208.366 215.155,210.221 214.131,212.166 210.000 C 212.918 208.403,214.126 206.289,215.939 203.400 C 216.629 202.300,217.562 200.680,218.014 199.800 C 218.465 198.920,219.270 197.480,219.803 196.600 C 220.335 195.720,221.273 194.126,221.886 193.059 C 223.196 190.776,224.278 188.903,227.000 184.208 C 228.100 182.310,229.384 180.092,229.852 179.279 C 230.321 178.466,231.711 176.090,232.940 174.000 C 234.169 171.910,235.748 169.044,236.449 167.631 L 237.723 165.063 236.561 164.109 C 235.923 163.585,234.680 162.782,233.800 162.324 C 232.920 161.867,232.110 161.357,232.000 161.191 C 231.890 161.026,231.170 160.588,230.400 160.218 C 228.540 159.326,226.068 157.945,224.647 157.002 C 224.012 156.582,222.955 156.279,222.297 156.329 C 221.639 156.379,220.484 156.057,219.731 155.612 C 218.792 155.058,216.771 154.608,213.317 154.182 C 210.543 153.840,207.973 153.400,207.606 153.203 C 206.599 152.664,203.162 152.403,201.765 152.758 M215.528 156.822 C 218.391 157.729,218.759 159.936,216.675 163.704 C 215.235 166.306,210.430 174.662,209.808 175.644 C 209.352 176.364,207.478 179.647,206.090 182.155 C 205.590 183.060,204.740 184.520,204.203 185.400 C 203.665 186.280,202.861 187.741,202.417 188.647 C 201.973 189.553,201.346 190.512,201.025 190.779 C 200.704 191.046,200.238 191.880,199.989 192.632 C 199.503 194.106,199.228 194.268,198.480 193.520 C 197.766 192.806,197.898 189.740,198.789 186.339 C 199.223 184.682,199.763 181.723,199.989 179.763 C 200.216 177.803,200.662 175.347,200.980 174.305 C 201.298 173.263,201.759 170.591,202.004 168.367 C 202.248 166.144,202.633 163.847,202.858 163.262 C 203.083 162.678,203.436 161.120,203.643 159.800 C 203.850 158.480,204.202 156.943,204.424 156.384 L 204.828 155.367 209.442 155.862 C 211.980 156.134,214.719 156.566,215.528 156.822 M201.528 156.514 C 201.934 157.002,201.646 159.355,201.065 160.295 C 200.933 160.509,200.554 162.873,200.222 165.550 C 199.891 168.226,199.440 170.751,199.221 171.161 C 199.001 171.571,198.555 174.061,198.229 176.695 C 197.903 179.328,197.457 181.914,197.239 182.441 C 197.020 182.969,196.645 184.390,196.406 185.600 C 195.143 191.991,194.868 191.973,193.815 185.432 C 193.484 183.371,193.045 181.244,192.841 180.707 C 192.636 180.170,192.264 177.946,192.014 175.765 C 191.763 173.584,191.301 170.990,190.986 170.000 C 190.672 169.010,190.217 166.405,189.975 164.210 C 189.734 162.016,189.449 160.079,189.342 159.906 C 188.595 158.697,190.818 157.071,194.107 156.422 C 196.849 155.881,201.046 155.933,201.528 156.514 M225.200 160.014 C 225.750 160.242,227.190 161.047,228.400 161.804 C 229.610 162.560,231.342 163.527,232.249 163.953 C 234.357 164.943,234.859 167.413,233.234 168.800 C 233.105 168.910,232.678 169.630,232.283 170.400 C 231.889 171.170,231.036 172.700,230.387 173.800 C 229.738 174.900,228.757 176.610,228.207 177.600 C 227.656 178.590,226.752 180.120,226.198 181.000 C 225.645 181.880,224.828 183.358,224.384 184.283 C 223.940 185.209,223.407 186.072,223.200 186.200 C 222.993 186.328,222.457 187.191,222.010 188.117 C 221.563 189.042,220.758 190.520,220.220 191.400 C 219.202 193.066,218.067 195.065,216.446 198.046 C 215.922 199.011,215.357 199.890,215.191 200.000 C 215.026 200.110,214.590 200.830,214.223 201.600 C 213.857 202.370,213.031 203.900,212.388 205.000 C 211.745 206.100,210.834 207.720,210.363 208.600 C 209.170 210.830,207.317 212.287,206.454 211.672 C 205.795 211.204,202.862 209.517,200.753 208.393 C 199.552 207.753,198.524 207.071,196.961 205.876 L 196.014 205.153 197.429 202.476 C 198.207 201.004,199.329 198.976,199.922 197.969 C 200.515 196.963,201.900 194.567,203.000 192.646 C 204.100 190.725,205.450 188.385,206.000 187.446 C 206.938 185.845,210.238 180.115,211.620 177.688 C 211.960 177.090,212.860 175.559,213.620 174.287 C 215.275 171.513,216.961 168.569,217.677 167.200 C 220.248 162.285,222.826 158.818,223.587 159.251 C 223.924 159.443,224.650 159.786,225.200 160.014 M186.419 160.800 C 187.143 160.800,187.635 162.509,188.184 166.939 C 188.495 169.444,189.012 172.373,189.333 173.447 C 189.655 174.521,190.121 177.200,190.369 179.400 C 190.617 181.600,191.078 184.120,191.393 185.000 C 192.920 189.272,191.745 194.898,190.033 191.509 C 189.558 190.569,188.192 188.180,186.998 186.200 C 185.803 184.220,184.449 181.880,183.989 181.000 C 182.700 178.538,181.800 176.963,180.976 175.728 C 180.080 174.384,179.110 172.713,178.115 170.800 C 177.714 170.030,177.062 168.917,176.665 168.327 C 175.381 166.417,176.934 164.792,182.656 162.058 C 183.567 161.622,184.440 161.059,184.596 160.806 C 184.753 160.553,185.147 160.448,185.473 160.573 C 185.799 160.698,186.224 160.800,186.419 160.800 M176.352 172.147 C 176.829 173.056,177.745 174.700,178.388 175.800 C 179.031 176.900,179.846 178.340,180.200 179.000 C 180.553 179.660,181.451 181.190,182.194 182.400 C 182.937 183.610,183.923 185.320,184.385 186.200 C 184.847 187.080,185.663 188.520,186.198 189.400 C 186.733 190.280,187.629 191.810,188.189 192.800 C 188.749 193.790,189.386 194.870,189.604 195.200 C 189.822 195.530,190.180 196.250,190.399 196.800 C 190.619 197.350,191.019 198.110,191.290 198.489 C 192.219 199.790,191.062 200.238,189.531 199.170 C 187.925 198.050,172.559 185.281,168.518 181.708 C 165.028 178.623,165.000 178.827,169.661 173.197 L 172.915 169.268 174.201 169.881 C 174.965 170.245,175.838 171.164,176.352 172.147 M204.044 198.558 C 200.623 200.454,202.056 206.000,205.968 206.000 C 207.234 206.000,209.542 203.624,209.657 202.200 C 209.900 199.221,206.651 197.113,204.044 198.558 M206.536 202.000 C 206.146 202.660,205.596 203.200,205.314 203.200 C 205.010 203.200,204.800 202.710,204.800 202.000 C 204.800 200.928,204.931 200.800,206.023 200.800 L 207.245 200.800 206.536 202.000 " stroke="none" fill="#6d2881" fill-rule="evenodd"></path><path id="path2" d="M240.800 169.376 C 240.800 170.602,241.028 170.701,241.316 169.600 C 241.431 169.161,241.362 168.700,241.162 168.577 C 240.963 168.454,240.800 168.813,240.800 169.376 M238.938 172.617 C 238.579 173.552,238.920 173.665,241.198 173.363 L 243.289 173.085 241.999 172.543 C 240.303 171.830,239.230 171.856,238.938 172.617 M244.594 174.810 C 244.262 175.348,245.134 175.676,245.842 175.280 C 246.408 174.964,246.382 174.889,245.646 174.696 C 245.181 174.575,244.708 174.626,244.594 174.810 M232.217 186.772 C 231.944 187.214,232.226 187.400,233.700 187.752 C 234.305 187.897,234.800 188.261,234.800 188.561 C 234.800 189.204,236.835 189.698,237.365 189.184 C 237.581 188.974,237.296 188.665,236.665 188.425 C 236.079 188.202,235.600 187.768,235.600 187.460 C 235.600 187.152,235.038 186.788,234.350 186.650 C 232.701 186.320,232.489 186.332,232.217 186.772 M232.229 190.780 C 231.490 191.049,231.489 191.072,232.196 191.343 C 232.602 191.499,233.099 191.461,233.302 191.258 C 233.818 190.742,233.152 190.445,232.229 190.780 M234.405 193.591 C 234.172 194.026,233.401 194.541,232.691 194.736 L 231.400 195.089 232.865 195.383 C 234.857 195.781,235.740 195.424,236.277 194.001 C 236.830 192.535,235.165 192.171,234.405 193.591 M224.800 198.000 C 224.800 199.730,226.696 199.729,227.681 197.997 L 228.363 196.800 226.581 196.800 C 224.869 196.800,224.800 196.846,224.800 198.000 M228.575 200.840 C 228.251 201.365,229.576 201.784,230.053 201.307 C 230.319 201.041,230.177 200.835,229.627 200.691 C 229.173 200.572,228.699 200.639,228.575 200.840 M224.100 202.693 C 222.897 202.911,222.948 203.600,224.167 203.600 C 225.496 203.600,226.400 203.992,226.400 204.568 C 226.400 204.833,226.940 205.449,227.600 205.937 C 228.260 206.425,228.805 207.134,228.812 207.512 C 228.828 208.412,229.376 207.490,229.742 205.947 C 229.955 205.048,229.815 204.821,228.786 204.394 C 228.123 204.120,227.450 203.676,227.291 203.408 C 226.943 202.824,225.347 202.467,224.100 202.693 M222.800 210.800 C 222.800 211.020,223.205 211.197,223.700 211.194 C 224.428 211.189,224.485 211.114,224.000 210.800 C 223.224 210.299,222.800 210.299,222.800 210.800 M226.000 210.800 C 225.391 211.193,225.408 211.200,227.000 211.200 C 227.110 211.200,227.213 211.070,227.230 210.910 C 227.279 210.440,226.646 210.383,226.000 210.800 M214.873 213.020 C 215.019 214.744,216.840 216.520,217.641 215.719 C 218.315 215.045,217.716 213.783,216.158 212.595 L 214.747 211.519 214.873 213.020 M219.300 217.076 C 219.685 217.176,220.315 217.176,220.700 217.076 C 221.085 216.975,220.770 216.893,220.000 216.893 C 219.230 216.893,218.915 216.975,219.300 217.076 " stroke="none" fill="#5c7e69" fill-rule="evenodd"></path><path id="path3" d="M200.600 151.839 C 200.160 151.947,199.080 152.291,198.200 152.602 C 197.320 152.914,194.858 153.343,192.729 153.556 C 188.756 153.953,185.837 155.085,185.399 156.400 C 185.289 156.730,184.524 157.321,183.700 157.713 C 182.875 158.105,181.300 158.952,180.200 159.595 C 179.100 160.238,177.570 161.062,176.800 161.425 C 176.030 161.789,175.256 162.337,175.080 162.643 C 174.904 162.949,174.518 163.200,174.222 163.200 C 173.733 163.200,173.113 163.849,170.299 167.305 C 169.360 168.459,167.560 170.572,166.641 171.600 C 164.150 174.386,161.989 177.303,161.771 178.173 C 161.510 179.212,163.223 182.400,164.041 182.400 C 164.223 182.400,164.903 182.895,165.552 183.500 C 166.785 184.649,168.266 185.911,170.363 187.600 C 171.046 188.150,172.084 189.095,172.669 189.700 C 173.254 190.305,173.952 190.800,174.220 190.800 C 174.488 190.800,175.003 191.250,175.363 191.800 C 175.724 192.350,176.186 192.800,176.391 192.800 C 176.596 192.800,177.267 193.263,177.882 193.828 C 179.204 195.044,179.754 195.526,183.244 198.527 C 184.699 199.777,186.023 200.800,186.187 200.800 C 186.351 200.800,186.839 201.250,187.271 201.800 C 187.704 202.350,188.244 202.800,188.471 202.800 C 188.699 202.800,189.239 203.250,189.671 203.800 C 190.104 204.350,190.715 204.800,191.029 204.800 C 191.343 204.800,191.600 205.032,191.600 205.316 C 191.600 206.000,194.665 208.800,195.414 208.800 C 195.736 208.800,196.000 208.990,196.000 209.222 C 196.000 209.455,196.786 209.993,197.747 210.418 C 198.708 210.843,199.711 211.451,199.975 211.770 C 200.239 212.088,200.964 212.460,201.586 212.597 C 202.208 212.734,203.024 213.185,203.400 213.600 C 203.776 214.015,204.589 214.466,205.208 214.602 C 205.827 214.738,206.433 215.108,206.554 215.424 C 207.095 216.833,210.800 215.318,210.800 213.688 C 210.800 213.435,211.136 213.048,211.547 212.828 C 211.958 212.608,212.404 211.882,212.537 211.214 C 212.671 210.546,213.026 210.000,213.326 210.000 C 213.626 210.000,214.124 209.237,214.432 208.304 C 214.739 207.372,215.304 206.296,215.685 205.915 C 216.067 205.533,216.503 204.721,216.654 204.110 C 216.806 203.500,217.246 202.775,217.633 202.500 C 218.020 202.224,218.451 201.478,218.591 200.841 C 218.731 200.204,219.185 199.376,219.600 199.000 C 220.015 198.624,220.469 197.796,220.609 197.159 C 220.749 196.521,221.039 196.000,221.254 196.000 C 221.469 196.000,221.993 195.214,222.418 194.253 C 222.843 193.292,223.451 192.289,223.770 192.025 C 224.088 191.761,224.474 190.972,224.628 190.272 C 224.782 189.573,225.223 188.779,225.608 188.509 C 225.993 188.239,226.433 187.521,226.586 186.913 C 226.739 186.305,227.024 185.709,227.221 185.587 C 227.598 185.354,229.116 182.786,230.307 180.364 C 230.696 179.575,231.326 178.617,231.706 178.236 C 232.087 177.856,232.514 177.062,232.656 176.472 C 232.797 175.882,233.247 175.078,233.656 174.684 C 234.065 174.291,234.400 173.720,234.400 173.415 C 234.400 173.111,234.825 172.353,235.345 171.731 C 235.865 171.109,236.423 170.177,236.585 169.661 C 236.747 169.144,237.221 168.379,237.639 167.961 C 239.525 166.075,238.122 163.194,234.517 161.547 C 233.591 161.123,232.728 160.607,232.600 160.400 C 232.472 160.193,231.609 159.662,230.683 159.221 C 229.758 158.781,228.640 158.207,228.200 157.947 C 227.760 157.687,227.200 157.367,226.956 157.237 C 226.712 157.107,226.034 156.663,225.450 156.250 C 224.866 155.838,223.536 155.410,222.494 155.299 C 221.452 155.189,220.290 154.828,219.911 154.497 C 219.479 154.120,217.761 153.759,215.311 153.530 C 213.160 153.329,210.680 152.881,209.800 152.535 C 208.223 151.915,202.158 151.456,200.600 151.839 M207.200 153.000 C 207.750 153.314,209.100 153.582,210.200 153.594 C 213.495 153.630,217.003 154.274,219.061 155.218 C 220.128 155.708,221.602 156.069,222.338 156.020 C 223.207 155.963,223.979 156.209,224.538 156.720 C 225.012 157.153,225.850 157.640,226.400 157.801 C 226.950 157.963,227.693 158.351,228.051 158.665 C 228.667 159.205,230.731 160.398,233.400 161.758 C 234.060 162.095,235.318 162.987,236.195 163.740 L 237.791 165.111 237.095 166.569 C 236.713 167.371,236.400 168.260,236.400 168.544 C 236.400 168.828,235.950 169.483,235.400 170.000 C 234.850 170.517,234.400 171.233,234.400 171.592 C 234.400 171.951,233.950 172.855,233.400 173.600 C 232.850 174.345,232.400 175.178,232.400 175.449 C 232.400 175.721,232.085 176.254,231.700 176.633 C 231.011 177.313,230.013 179.042,228.485 182.206 C 228.058 183.089,227.415 184.056,227.055 184.355 C 226.695 184.653,226.400 185.163,226.400 185.487 C 226.400 185.811,225.995 186.644,225.501 187.338 C 224.437 188.831,223.534 190.405,222.479 192.606 C 222.056 193.489,221.415 194.456,221.055 194.755 C 220.695 195.053,220.400 195.621,220.400 196.015 C 220.400 196.409,220.034 197.152,219.586 197.666 C 218.727 198.652,217.776 200.294,216.439 203.100 C 215.993 204.035,215.456 204.800,215.246 204.800 C 215.036 204.800,214.743 205.348,214.596 206.018 C 214.449 206.688,213.895 207.704,213.364 208.276 C 212.834 208.849,212.400 209.516,212.399 209.758 C 212.394 213.002,207.482 215.552,204.841 213.682 C 203.222 212.536,201.072 211.262,199.600 210.576 C 198.830 210.217,197.840 209.604,197.400 209.214 C 196.960 208.824,196.149 208.399,195.599 208.270 C 195.048 208.140,194.054 207.327,193.390 206.463 C 192.726 205.599,190.836 203.771,189.191 202.401 C 187.546 201.030,185.930 199.665,185.600 199.366 C 184.613 198.472,182.419 196.646,178.400 193.377 C 176.310 191.677,174.222 189.907,173.759 189.443 C 173.297 188.979,172.244 188.060,171.419 187.400 C 170.594 186.740,169.677 185.972,169.381 185.693 C 169.086 185.415,167.979 184.538,166.922 183.744 C 165.865 182.951,164.347 181.560,163.548 180.653 L 162.097 179.004 163.246 177.402 C 169.572 168.588,175.153 162.687,178.000 161.801 C 178.550 161.630,179.509 161.065,180.131 160.545 C 180.753 160.025,181.421 159.600,181.617 159.600 C 182.202 159.600,185.749 157.234,186.098 156.610 C 186.276 156.292,187.002 155.855,187.711 155.640 C 188.420 155.425,189.775 154.965,190.723 154.618 C 191.671 154.272,194.101 153.872,196.123 153.730 C 198.145 153.587,200.340 153.237,201.000 152.951 C 202.594 152.261,205.953 152.287,207.200 153.000 M204.800 155.396 C 204.800 156.218,203.756 160.794,203.178 162.502 C 202.675 163.990,202.419 165.757,202.453 167.502 C 202.505 170.081,202.520 170.121,202.796 168.400 C 202.956 167.410,203.381 165.812,203.743 164.850 C 204.104 163.887,204.402 162.357,204.404 161.450 C 204.415 157.407,204.687 156.879,206.940 156.520 L 208.982 156.195 206.891 155.767 C 205.741 155.531,204.800 155.364,204.800 155.396 M197.200 156.269 C 191.850 156.532,188.932 157.982,189.680 160.005 C 189.880 160.546,190.183 162.882,190.353 165.195 C 190.553 167.905,190.913 169.879,191.366 170.748 C 191.828 171.632,192.146 173.419,192.291 175.948 C 192.424 178.277,192.809 180.567,193.265 181.739 C 193.680 182.806,194.173 185.199,194.362 187.058 C 194.550 188.917,194.803 190.536,194.923 190.656 C 195.214 190.948,195.995 188.085,195.998 186.715 C 195.999 186.118,196.342 184.678,196.760 183.515 C 197.179 182.352,197.626 179.870,197.754 178.000 C 197.882 176.130,198.336 173.520,198.764 172.200 C 199.191 170.880,199.715 167.984,199.927 165.763 C 200.143 163.516,200.609 161.156,200.980 160.439 C 201.353 159.718,201.591 158.503,201.523 157.676 C 201.385 156.025,201.487 156.058,197.200 156.269 M210.800 156.818 C 216.042 157.724,218.358 159.577,216.696 161.535 C 216.386 161.901,215.893 162.830,215.601 163.600 C 215.309 164.370,214.774 165.360,214.412 165.800 C 214.049 166.240,213.528 167.050,213.253 167.600 C 212.979 168.150,212.235 169.500,211.601 170.600 C 210.966 171.700,210.122 173.224,209.724 173.988 C 209.326 174.751,208.703 175.678,208.341 176.047 C 207.978 176.416,207.559 177.277,207.409 177.959 C 207.259 178.642,206.964 179.200,206.754 179.200 C 206.544 179.200,206.043 179.968,205.640 180.906 C 205.238 181.844,204.615 182.856,204.255 183.155 C 203.895 183.453,203.600 183.958,203.600 184.276 C 203.600 184.593,203.171 185.426,202.646 186.127 C 202.122 186.827,201.570 187.805,201.419 188.300 C 201.263 188.816,200.826 189.200,200.397 189.200 C 199.841 189.200,199.548 189.640,199.266 190.900 L 198.886 192.600 198.843 191.031 C 198.818 190.135,199.060 189.175,199.408 188.791 C 199.814 188.343,200.073 187.003,200.187 184.760 C 200.281 182.912,200.260 181.843,200.140 182.384 C 200.020 182.925,199.580 184.236,199.161 185.298 C 198.351 187.355,198.071 193.350,198.766 193.779 C 199.122 193.999,199.909 192.740,201.539 189.344 C 201.976 188.433,202.524 187.571,202.756 187.427 C 202.987 187.284,203.543 186.409,203.990 185.483 C 204.437 184.558,205.246 183.080,205.789 182.200 C 206.331 181.320,207.146 179.842,207.599 178.917 C 208.052 177.991,208.600 177.123,208.817 176.989 C 209.035 176.855,209.487 176.173,209.824 175.473 C 210.160 174.773,210.957 173.300,211.594 172.200 C 212.231 171.100,213.071 169.570,213.461 168.800 C 213.850 168.030,214.393 167.124,214.668 166.786 C 219.531 160.814,218.287 156.332,211.800 156.454 C 209.121 156.505,209.078 156.520,210.800 156.818 M200.402 157.796 C 200.193 158.343,199.824 160.785,199.580 163.222 C 199.337 165.659,198.892 168.238,198.593 168.955 C 198.294 169.671,197.840 172.201,197.584 174.576 C 197.328 176.952,196.886 179.460,196.601 180.148 C 196.316 180.837,195.877 182.742,195.625 184.383 C 195.197 187.171,194.809 188.468,194.793 187.167 C 194.763 184.804,193.942 179.391,193.451 178.316 C 193.120 177.592,192.677 175.002,192.466 172.559 C 192.244 169.996,191.812 167.597,191.443 166.884 C 191.035 166.093,190.768 164.393,190.702 162.162 L 190.600 158.676 192.600 158.216 C 193.700 157.963,194.960 157.546,195.400 157.290 C 197.118 156.290,200.832 156.665,200.402 157.796 M222.194 160.104 C 221.757 160.796,220.997 162.136,220.504 163.081 C 220.011 164.027,219.446 164.800,219.247 164.800 C 219.049 164.800,218.763 165.295,218.612 165.900 C 218.461 166.505,218.037 167.333,217.669 167.740 C 217.017 168.461,215.945 170.360,214.584 173.200 C 214.216 173.970,213.677 174.736,213.388 174.902 C 213.099 175.069,212.747 175.731,212.606 176.375 C 212.464 177.018,212.066 177.780,211.720 178.067 C 211.374 178.354,210.749 179.311,210.332 180.194 C 209.914 181.077,209.037 182.700,208.384 183.800 C 207.730 184.900,206.981 186.250,206.720 186.800 C 206.459 187.350,206.002 188.093,205.705 188.451 C 205.112 189.165,203.692 191.702,202.484 194.206 C 202.058 195.089,201.415 196.056,201.055 196.355 C 200.695 196.653,200.400 197.214,200.400 197.600 C 200.400 197.986,200.128 198.528,199.795 198.804 C 199.463 199.080,198.827 200.047,198.383 200.953 C 197.938 201.859,197.309 203.077,196.984 203.660 C 196.338 204.821,196.568 206.000,197.439 206.000 C 197.744 206.000,198.218 206.360,198.493 206.800 C 198.768 207.240,199.282 207.600,199.636 207.600 C 199.990 207.600,201.072 208.137,202.040 208.793 C 203.008 209.449,203.997 209.989,204.238 209.993 C 204.479 209.997,205.002 210.360,205.400 210.800 C 206.629 212.158,209.600 211.101,209.600 209.305 C 209.600 209.061,210.025 208.353,210.545 207.731 C 211.065 207.109,211.626 206.150,211.791 205.600 C 211.957 205.050,212.411 204.240,212.800 203.800 C 213.189 203.360,213.643 202.550,213.809 202.000 C 213.974 201.450,214.535 200.491,215.055 199.869 C 215.575 199.247,216.000 198.510,216.000 198.231 C 216.000 197.952,216.360 197.398,216.800 197.000 C 217.240 196.602,217.600 195.958,217.600 195.569 C 217.600 195.180,218.009 194.353,218.509 193.731 C 219.009 193.109,219.741 191.970,220.136 191.200 C 221.413 188.712,222.314 187.160,222.879 186.472 C 223.183 186.103,223.749 185.170,224.136 184.400 C 225.632 181.426,226.127 180.573,226.806 179.800 C 227.192 179.360,227.639 178.550,227.800 178.000 C 227.961 177.450,228.418 176.640,228.816 176.200 C 229.215 175.760,229.662 174.912,229.810 174.316 C 229.957 173.720,230.322 173.031,230.619 172.784 C 230.917 172.537,231.545 171.540,232.016 170.568 C 232.486 169.595,233.015 168.800,233.191 168.800 C 234.671 168.800,233.892 164.957,232.251 164.167 C 231.563 163.836,230.100 163.040,229.000 162.400 C 227.900 161.760,226.370 160.940,225.600 160.578 C 224.830 160.216,223.927 159.679,223.594 159.383 C 223.074 158.923,222.875 159.025,222.194 160.104 M184.308 161.111 C 184.035 161.440,183.064 162.030,182.150 162.422 C 181.236 162.813,180.366 163.331,180.217 163.573 C 180.067 163.814,179.328 164.270,178.574 164.585 C 176.694 165.370,176.010 166.916,176.912 168.337 C 177.282 168.922,177.863 169.989,178.202 170.709 C 178.541 171.429,179.174 172.374,179.609 172.809 C 180.044 173.244,180.400 173.938,180.400 174.351 C 180.400 174.764,180.695 175.347,181.055 175.645 C 181.415 175.944,182.056 176.911,182.479 177.794 C 183.626 180.187,184.704 182.139,185.180 182.685 C 185.413 182.952,185.821 183.672,186.086 184.285 C 186.352 184.898,186.981 185.909,187.484 186.531 C 187.988 187.153,188.400 187.904,188.400 188.200 C 188.400 188.496,188.823 189.247,189.339 189.869 C 189.856 190.491,190.410 191.540,190.572 192.200 C 190.854 193.354,190.887 193.370,191.441 192.611 C 192.195 191.580,191.853 186.805,190.767 183.200 C 190.336 181.770,189.827 178.890,189.635 176.800 C 189.444 174.710,188.995 172.225,188.638 171.277 C 188.280 170.329,187.876 167.899,187.739 165.877 C 187.415 161.087,185.981 159.095,184.308 161.111 M226.031 161.631 C 226.443 162.043,227.279 162.503,227.890 162.654 C 228.500 162.806,229.225 163.246,229.500 163.633 C 229.776 164.020,230.552 164.458,231.226 164.606 C 232.734 164.937,233.615 166.508,232.868 167.531 C 232.600 167.899,232.016 168.965,231.571 169.900 C 231.127 170.835,230.618 171.600,230.442 171.600 C 230.266 171.600,229.814 172.275,229.439 173.100 C 228.273 175.662,227.029 177.888,226.331 178.660 C 225.963 179.067,225.542 179.882,225.395 180.471 C 225.248 181.060,224.884 181.636,224.586 181.750 C 224.288 181.864,223.826 182.687,223.559 183.579 C 223.292 184.470,222.915 185.200,222.722 185.200 C 222.529 185.200,222.043 185.968,221.640 186.906 C 221.238 187.844,220.615 188.856,220.255 189.155 C 219.895 189.453,219.600 189.977,219.600 190.317 C 219.600 190.658,219.345 191.221,219.033 191.569 C 218.446 192.223,216.955 194.768,215.734 197.200 C 215.348 197.970,214.783 198.903,214.479 199.272 C 213.849 200.039,212.750 201.958,211.780 203.986 C 211.416 204.749,210.894 205.559,210.620 205.786 C 210.347 206.014,209.879 206.830,209.581 207.600 C 209.053 208.962,206.800 211.504,206.800 210.738 C 206.800 210.527,206.014 210.007,205.053 209.582 C 204.092 209.157,203.080 208.537,202.804 208.205 C 202.528 207.872,202.053 207.600,201.748 207.600 C 201.443 207.600,200.448 207.060,199.537 206.400 C 198.625 205.740,197.637 205.200,197.340 205.200 C 196.968 205.200,197.042 204.958,197.578 204.422 C 198.005 203.995,198.472 203.021,198.615 202.259 C 198.772 201.423,199.154 200.801,199.577 200.690 C 199.987 200.583,200.389 199.955,200.544 199.180 C 200.690 198.450,201.094 197.538,201.442 197.154 C 202.123 196.401,203.081 194.769,204.375 192.153 C 204.824 191.247,205.451 190.289,205.770 190.025 C 206.088 189.761,206.474 188.972,206.628 188.272 C 206.782 187.573,207.223 186.779,207.608 186.509 C 207.993 186.239,208.433 185.521,208.586 184.913 C 208.739 184.305,209.024 183.709,209.221 183.587 C 209.598 183.354,211.116 180.786,212.307 178.364 C 212.696 177.575,213.326 176.617,213.706 176.236 C 214.087 175.856,214.514 175.062,214.656 174.472 C 214.797 173.882,215.247 173.078,215.656 172.684 C 216.065 172.291,216.400 171.720,216.400 171.415 C 216.400 171.111,216.825 170.353,217.345 169.731 C 217.865 169.109,218.423 168.177,218.585 167.661 C 218.747 167.144,219.227 166.373,219.652 165.948 C 220.077 165.523,220.532 164.641,220.663 163.988 C 220.793 163.334,221.053 162.800,221.240 162.800 C 221.427 162.800,221.865 162.248,222.214 161.573 C 222.937 160.175,224.600 160.200,226.031 161.631 M186.463 163.643 C 186.827 164.405,187.326 167.034,187.571 169.485 C 187.816 171.936,188.274 174.558,188.589 175.311 C 188.903 176.064,189.358 178.624,189.600 181.000 C 189.842 183.376,190.301 185.945,190.620 186.709 C 190.939 187.473,191.179 188.931,191.154 189.949 C 191.128 190.967,191.031 191.440,190.938 191.000 C 190.845 190.560,190.685 189.807,190.583 189.327 C 190.482 188.846,190.050 188.343,189.624 188.208 C 189.198 188.072,188.650 187.356,188.405 186.616 C 188.161 185.876,187.700 185.170,187.381 185.048 C 187.061 184.925,186.800 184.473,186.800 184.043 C 186.800 183.613,186.362 182.740,185.826 182.104 C 185.290 181.467,184.733 180.471,184.587 179.890 C 184.441 179.308,184.067 178.622,183.756 178.364 C 183.445 178.105,182.843 177.108,182.418 176.147 C 181.993 175.186,181.469 174.400,181.254 174.400 C 181.039 174.400,180.749 173.879,180.609 173.241 C 180.469 172.604,180.015 171.776,179.600 171.400 C 179.185 171.024,178.735 170.214,178.600 169.600 C 178.465 168.986,178.010 168.171,177.590 167.791 C 176.776 167.055,178.451 164.800,179.812 164.800 C 180.101 164.800,180.847 164.377,181.469 163.860 C 183.990 161.763,185.531 161.696,186.463 163.643 M171.455 171.427 C 170.606 172.595,169.146 174.348,168.212 175.323 C 165.484 178.170,165.525 178.734,168.661 181.473 C 170.126 182.753,171.815 184.250,172.415 184.800 C 174.450 186.665,177.393 189.112,179.400 190.607 C 180.500 191.427,181.760 192.435,182.200 192.847 C 186.934 197.284,190.632 200.151,191.182 199.811 C 191.824 199.415,191.681 198.597,190.836 197.833 C 190.416 197.452,189.954 196.671,189.810 196.097 C 189.666 195.523,189.110 194.533,188.574 193.896 C 188.038 193.260,187.600 192.463,187.600 192.127 C 187.600 191.791,187.150 190.981,186.600 190.327 C 186.050 189.673,185.600 188.910,185.600 188.631 C 185.600 188.352,185.250 187.807,184.823 187.421 C 184.395 187.034,183.935 186.214,183.800 185.600 C 183.665 184.986,183.215 184.176,182.800 183.800 C 182.385 183.424,181.928 182.584,181.785 181.931 C 181.642 181.279,181.286 180.654,180.993 180.542 C 180.701 180.430,180.186 179.647,179.848 178.803 C 179.510 177.959,179.051 177.155,178.828 177.017 C 178.605 176.880,178.051 176.009,177.597 175.083 C 174.533 168.836,173.700 168.340,171.455 171.427 M175.496 172.940 C 175.989 173.963,176.545 174.800,176.732 174.800 C 176.919 174.800,177.316 175.539,177.614 176.443 C 177.912 177.346,178.380 178.171,178.654 178.276 C 178.927 178.381,179.262 178.973,179.398 179.592 C 179.534 180.211,179.988 181.027,180.408 181.407 C 180.827 181.786,181.371 182.705,181.616 183.448 C 181.861 184.192,182.213 184.800,182.398 184.800 C 182.583 184.800,183.045 185.616,183.426 186.613 C 183.807 187.611,184.317 188.556,184.559 188.713 C 184.802 188.871,185.323 189.630,185.719 190.400 C 186.114 191.170,186.880 192.581,187.421 193.535 C 189.003 196.324,187.888 196.904,185.372 194.600 C 184.531 193.830,183.609 193.200,183.322 193.200 C 183.035 193.200,182.800 192.935,182.800 192.610 C 182.800 192.286,182.282 191.753,181.648 191.425 C 181.015 191.098,180.391 190.553,180.261 190.215 C 180.131 189.877,179.758 189.600,179.432 189.600 C 179.106 189.600,178.696 189.351,178.520 189.047 C 178.260 188.598,175.734 186.398,172.497 183.803 C 170.702 182.364,169.465 181.283,168.716 180.500 C 168.243 180.005,167.618 179.600,167.328 179.600 C 166.457 179.600,166.731 178.149,167.793 177.142 C 168.339 176.624,168.789 175.885,168.793 175.500 C 168.797 175.115,169.064 174.800,169.386 174.800 C 169.708 174.800,170.162 174.444,170.395 174.009 C 170.628 173.574,171.264 172.772,171.809 172.227 C 172.354 171.682,172.800 171.054,172.800 170.831 C 172.800 169.781,174.685 171.256,175.496 172.940 M202.074 171.085 C 202.033 171.572,201.640 172.884,201.200 174.000 C 200.650 175.396,200.417 176.867,200.453 178.715 C 200.505 181.319,200.516 181.346,200.811 179.600 C 200.978 178.610,201.412 177.008,201.776 176.040 C 202.183 174.956,202.382 173.496,202.293 172.240 C 202.213 171.118,202.115 170.598,202.074 171.085 M189.330 196.561 C 189.580 197.213,189.244 197.674,188.744 197.366 C 188.290 197.085,188.300 196.000,188.757 196.000 C 188.954 196.000,189.211 196.252,189.330 196.561 M203.339 197.688 C 199.731 198.849,200.880 205.846,204.800 206.589 L 206.200 206.854 205.033 206.216 C 203.049 205.131,201.600 203.333,201.600 201.957 C 201.600 200.425,204.395 197.359,205.430 197.756 C 205.779 197.890,206.402 198.000,206.812 198.000 C 210.702 198.000,210.692 204.708,206.800 206.119 C 206.439 206.250,206.599 206.349,207.200 206.368 C 211.285 206.495,211.755 199.104,207.758 197.584 C 206.523 197.114,205.010 197.150,203.339 197.688 M204.800 202.000 C 204.800 202.710,205.010 203.200,205.314 203.200 C 205.596 203.200,206.146 202.660,206.536 202.000 L 207.245 200.800 206.023 200.800 C 204.931 200.800,204.800 200.928,204.800 202.000 " stroke="none" fill="#d195e4" fill-rule="evenodd"></path><path id="path4" d="M193.400 154.022 C 192.389 154.216,192.978 154.251,195.000 154.116 C 196.760 153.999,198.275 153.835,198.367 153.751 C 198.644 153.500,195.111 153.692,193.400 154.022 M210.700 153.882 C 211.195 153.978,212.005 153.978,212.500 153.882 C 212.995 153.787,212.590 153.709,211.600 153.709 C 210.610 153.709,210.205 153.787,210.700 153.882 M214.305 154.283 C 214.802 154.379,215.522 154.375,215.905 154.275 C 216.287 154.175,215.880 154.096,215.000 154.101 C 214.120 154.105,213.807 154.187,214.305 154.283 M207.800 155.994 C 209.013 156.309,213.075 156.522,212.767 156.256 C 212.675 156.176,211.250 156.015,209.600 155.897 C 207.842 155.772,207.097 155.812,207.800 155.994 M196.500 156.287 C 197.105 156.378,198.095 156.378,198.700 156.287 C 199.305 156.195,198.810 156.120,197.600 156.120 C 196.390 156.120,195.895 156.195,196.500 156.287 M203.818 158.618 C 203.665 159.639,203.622 160.555,203.722 160.655 C 203.822 160.755,204.029 160.002,204.182 158.982 C 204.335 157.961,204.378 157.045,204.278 156.945 C 204.178 156.845,203.971 157.598,203.818 158.618 M217.709 160.000 C 217.709 160.990,217.787 161.395,217.882 160.900 C 217.978 160.405,217.978 159.595,217.882 159.100 C 217.787 158.605,217.709 159.010,217.709 160.000 M224.000 159.734 C 224.000 159.837,224.581 160.124,225.291 160.372 C 226.001 160.619,226.406 160.657,226.191 160.456 C 225.735 160.029,224.000 159.458,224.000 159.734 M219.878 163.405 C 219.512 164.172,219.295 164.800,219.396 164.800 C 219.670 164.800,220.884 162.351,220.701 162.168 C 220.614 162.081,220.244 162.638,219.878 163.405 M190.114 164.600 C 190.117 165.700,190.195 166.103,190.287 165.495 C 190.379 164.886,190.377 163.986,190.282 163.495 C 190.187 163.003,190.111 163.500,190.114 164.600 M200.101 164.200 C 200.105 165.080,200.187 165.393,200.283 164.895 C 200.379 164.398,200.375 163.678,200.275 163.295 C 200.175 162.913,200.096 163.320,200.101 164.200 M187.630 165.033 C 187.646 165.895,187.813 167.410,188.001 168.400 C 188.258 169.753,188.288 169.406,188.123 167.000 C 187.890 163.622,187.579 162.382,187.630 165.033 M199.709 167.600 C 199.709 168.590,199.787 168.995,199.882 168.500 C 199.978 168.005,199.978 167.195,199.882 166.700 C 199.787 166.205,199.709 166.610,199.709 167.600 M202.065 167.800 C 202.025 168.680,201.906 170.120,201.802 171.000 L 201.612 172.600 202.023 171.000 C 202.248 170.120,202.367 168.680,202.286 167.800 L 202.140 166.200 202.065 167.800 M240.406 168.389 C 240.183 168.806,240.000 169.389,240.000 169.685 C 240.000 169.980,239.645 170.526,239.211 170.898 C 238.777 171.269,238.304 172.074,238.161 172.687 C 238.017 173.299,237.554 174.077,237.132 174.416 C 236.549 174.882,236.445 175.252,236.700 175.942 L 237.037 176.852 237.588 175.823 C 238.616 173.902,242.190 173.568,243.578 175.264 C 244.570 176.477,247.200 176.744,247.200 175.632 C 247.200 175.020,246.800 174.592,245.862 174.200 C 243.198 173.087,241.660 171.316,241.887 169.624 C 242.121 167.882,241.123 167.049,240.406 168.389 M241.316 169.600 C 241.028 170.701,240.800 170.602,240.800 169.376 C 240.800 168.813,240.963 168.454,241.162 168.577 C 241.362 168.700,241.431 169.161,241.316 169.600 M168.000 171.200 C 167.079 172.300,166.416 173.200,166.526 173.200 C 166.636 173.200,167.479 172.300,168.400 171.200 C 169.321 170.100,169.984 169.200,169.874 169.200 C 169.764 169.200,168.921 170.100,168.000 171.200 M169.942 172.900 C 167.610 175.691,167.069 176.400,167.271 176.400 C 167.364 176.400,168.477 175.140,169.744 173.600 C 171.011 172.060,171.969 170.800,171.872 170.800 C 171.776 170.800,170.907 171.745,169.942 172.900 M191.881 174.400 C 192.004 176.050,192.171 177.475,192.252 177.567 C 192.531 177.881,192.354 174.601,192.006 173.000 C 191.748 171.814,191.716 172.176,191.881 174.400 M241.999 172.543 L 243.289 173.085 241.198 173.363 C 238.920 173.665,238.579 173.552,238.938 172.617 C 239.230 171.856,240.303 171.830,241.999 172.543 M179.524 173.000 C 179.726 173.440,179.992 174.070,180.114 174.400 C 180.307 174.918,180.341 174.915,180.368 174.376 C 180.386 174.034,180.120 173.404,179.778 172.976 C 179.166 172.212,179.162 172.213,179.524 173.000 M197.788 176.988 C 197.631 178.664,197.589 180.123,197.695 180.229 C 197.801 180.334,198.012 179.046,198.165 177.365 C 198.317 175.684,198.359 174.226,198.258 174.124 C 198.157 174.023,197.945 175.312,197.788 176.988 M245.842 175.280 C 245.134 175.676,244.262 175.348,244.594 174.810 C 244.708 174.626,245.181 174.575,245.646 174.696 C 246.382 174.889,246.408 174.964,245.842 175.280 M189.714 176.600 C 189.717 177.700,189.795 178.103,189.887 177.495 C 189.979 176.886,189.977 175.986,189.882 175.495 C 189.787 175.003,189.711 175.500,189.714 176.600 M200.065 179.000 C 200.025 179.880,199.906 181.320,199.802 182.200 L 199.612 183.800 200.023 182.200 C 200.248 181.320,200.367 179.880,200.286 179.000 L 200.140 177.400 200.065 179.000 M234.485 178.475 C 234.218 178.742,234.000 179.464,234.000 180.080 C 234.000 180.749,233.784 181.200,233.464 181.200 C 232.917 181.200,232.000 182.810,232.000 183.772 C 232.000 184.066,231.685 184.389,231.299 184.490 C 229.717 184.904,230.612 188.600,232.294 188.600 C 233.081 188.600,233.802 188.825,233.896 189.100 C 234.180 189.931,232.911 190.114,231.554 189.437 C 230.109 188.716,228.800 188.604,228.800 189.200 C 228.800 189.420,229.074 189.600,229.410 189.600 C 229.745 189.600,230.193 190.055,230.404 190.610 C 230.615 191.166,231.106 191.721,231.494 191.843 C 234.484 192.784,234.527 193.476,231.646 194.339 C 230.786 194.597,229.980 195.076,229.854 195.404 C 229.687 195.838,228.991 196.000,227.293 196.000 C 223.287 196.000,222.422 199.326,226.167 200.328 C 227.731 200.746,227.571 201.363,225.800 201.742 C 223.066 202.326,222.489 202.685,222.205 203.978 C 222.056 204.654,221.611 205.380,221.215 205.592 C 219.779 206.360,219.769 208.942,221.200 209.316 C 221.603 209.421,221.992 209.932,222.066 210.452 C 222.416 212.922,228.000 213.200,228.000 210.747 C 228.000 210.332,228.367 209.679,228.816 209.296 C 229.531 208.687,231.104 204.534,230.737 204.225 C 230.662 204.162,230.105 203.950,229.500 203.755 C 228.036 203.282,227.935 202.630,229.302 202.473 C 230.020 202.391,230.488 202.564,230.644 202.971 C 231.003 203.905,231.600 203.311,231.600 202.020 C 231.600 201.076,231.339 200.783,230.034 200.260 C 226.773 198.955,229.159 196.000,233.473 196.000 C 237.462 196.000,239.558 192.625,236.100 191.771 C 234.229 191.308,234.328 190.867,236.365 190.579 C 238.288 190.307,238.736 189.409,237.569 188.167 C 236.769 187.315,236.756 187.199,237.357 186.340 C 237.711 185.835,238.000 185.108,238.000 184.725 C 238.000 184.342,238.365 183.833,238.811 183.594 C 240.039 182.937,239.370 182.382,237.948 182.878 C 237.131 183.163,236.524 183.763,236.152 184.654 C 235.525 186.155,235.445 186.183,233.638 185.553 C 232.387 185.117,232.376 185.092,233.178 184.530 C 233.630 184.214,234.000 183.580,234.000 183.123 C 234.000 182.666,234.462 181.864,235.026 181.341 C 235.736 180.683,236.013 180.062,235.926 179.326 C 235.782 178.112,235.195 177.765,234.485 178.475 M167.000 180.400 C 167.859 181.280,168.652 182.000,168.762 182.000 C 168.872 182.000,168.259 181.280,167.400 180.400 C 166.541 179.520,165.748 178.800,165.638 178.800 C 165.528 178.800,166.141 179.520,167.000 180.400 M190.093 180.000 C 190.093 180.770,190.175 181.085,190.276 180.700 C 190.376 180.315,190.376 179.685,190.276 179.300 C 190.175 178.915,190.093 179.230,190.093 180.000 M164.000 181.306 C 164.000 181.394,164.765 182.074,165.700 182.817 C 166.635 183.560,167.146 183.852,166.836 183.465 C 166.251 182.737,164.000 181.023,164.000 181.306 M170.001 182.937 C 170.551 183.562,171.360 184.259,171.800 184.486 C 172.642 184.920,172.618 184.893,170.401 182.997 L 169.003 181.800 170.001 182.937 M193.877 185.400 C 194.000 186.720,194.168 187.875,194.250 187.967 C 194.518 188.264,194.315 185.434,193.980 184.200 C 193.765 183.411,193.730 183.822,193.877 185.400 M191.709 188.000 C 191.709 188.990,191.787 189.395,191.882 188.900 C 191.978 188.405,191.978 187.595,191.882 187.100 C 191.787 186.605,191.709 187.010,191.709 188.000 M234.350 186.650 C 235.038 186.788,235.600 187.152,235.600 187.460 C 235.600 187.768,236.079 188.202,236.665 188.425 C 237.296 188.665,237.581 188.974,237.365 189.184 C 236.835 189.698,234.800 189.204,234.800 188.561 C 234.800 188.261,234.305 187.897,233.700 187.752 C 232.226 187.400,231.944 187.214,232.217 186.772 C 232.489 186.332,232.701 186.320,234.350 186.650 M202.236 187.942 C 201.794 188.658,201.166 190.582,201.499 190.200 C 201.940 189.694,202.839 187.600,202.615 187.600 C 202.523 187.600,202.352 187.754,202.236 187.942 M198.124 191.000 C 198.126 192.320,198.201 192.812,198.290 192.093 C 198.379 191.374,198.377 190.294,198.286 189.693 C 198.195 189.092,198.122 189.680,198.124 191.000 M203.878 191.005 C 203.512 191.772,203.295 192.400,203.396 192.400 C 203.670 192.400,204.884 189.951,204.701 189.768 C 204.614 189.681,204.244 190.238,203.878 191.005 M176.800 191.991 C 178.658 193.698,180.800 195.366,180.800 195.107 C 180.800 195.026,179.495 193.920,177.900 192.649 C 176.174 191.273,175.729 191.007,176.800 191.991 M179.564 190.935 C 180.149 191.663,182.400 193.377,182.400 193.094 C 182.400 193.006,181.635 192.326,180.700 191.583 C 179.765 190.840,179.254 190.548,179.564 190.935 M233.302 191.258 C 233.099 191.461,232.602 191.499,232.196 191.343 C 231.489 191.072,231.490 191.049,232.229 190.780 C 233.152 190.445,233.818 190.742,233.302 191.258 M236.277 194.001 C 235.740 195.424,234.857 195.781,232.865 195.383 L 231.400 195.089 232.691 194.736 C 233.401 194.541,234.172 194.026,234.405 193.591 C 235.165 192.171,236.830 192.535,236.277 194.001 M217.988 194.422 C 217.746 194.874,217.607 195.422,217.680 195.639 C 217.752 195.857,218.018 195.487,218.271 194.817 C 218.797 193.425,218.639 193.205,217.988 194.422 M201.494 195.303 L 200.788 196.600 201.594 195.656 C 202.280 194.852,202.646 193.994,202.300 194.003 C 202.245 194.004,201.882 194.589,201.494 195.303 M219.700 196.900 C 219.270 198.075,219.280 198.126,219.812 197.424 C 220.321 196.752,220.621 195.600,220.288 195.600 C 220.226 195.600,219.961 196.185,219.700 196.900 M227.681 197.997 C 226.696 199.729,224.800 199.730,224.800 198.000 C 224.800 196.846,224.869 196.800,226.581 196.800 L 228.363 196.800 227.681 197.997 M202.014 200.374 C 201.428 201.469,201.501 202.916,202.188 203.824 C 202.720 204.526,202.730 204.475,202.300 203.300 C 201.942 202.321,201.936 201.704,202.278 200.800 C 202.789 199.446,202.640 199.205,202.014 200.374 M197.878 201.405 C 197.512 202.172,197.295 202.800,197.396 202.800 C 197.670 202.800,198.884 200.351,198.701 200.168 C 198.614 200.081,198.244 200.638,197.878 201.405 M187.200 200.514 C 187.200 200.618,188.228 201.580,189.484 202.651 C 190.740 203.723,191.639 204.391,191.483 204.136 C 191.139 203.577,187.200 200.246,187.200 200.514 M213.979 201.455 C 213.758 202.036,213.652 202.585,213.743 202.676 C 213.833 202.767,214.099 202.292,214.333 201.620 C 214.853 200.128,214.539 199.982,213.979 201.455 M230.053 201.307 C 229.576 201.784,228.251 201.365,228.575 200.840 C 228.699 200.639,229.173 200.572,229.627 200.691 C 230.177 200.835,230.319 201.041,230.053 201.307 M209.660 202.259 C 209.617 203.154,209.193 203.875,208.186 204.759 C 207.408 205.441,206.923 206.000,207.108 206.000 C 208.071 206.000,210.056 203.254,209.891 202.149 L 209.720 201.000 209.660 202.259 M227.291 203.408 C 227.450 203.676,228.123 204.120,228.786 204.394 C 229.815 204.821,229.955 205.048,229.742 205.947 C 229.376 207.490,228.828 208.412,228.812 207.512 C 228.805 207.134,228.260 206.425,227.600 205.937 C 226.940 205.449,226.400 204.833,226.400 204.568 C 226.400 203.992,225.496 203.600,224.167 203.600 C 222.948 203.600,222.897 202.911,224.100 202.693 C 225.347 202.467,226.943 202.824,227.291 203.408 M225.600 205.224 C 225.600 205.431,225.330 205.600,225.000 205.600 C 224.381 205.600,224.205 205.128,224.656 204.678 C 224.975 204.358,225.600 204.719,225.600 205.224 M213.978 206.658 C 213.757 207.239,213.464 207.897,213.326 208.119 C 213.189 208.342,213.266 208.406,213.499 208.263 C 213.939 207.990,214.900 205.600,214.569 205.600 C 214.465 205.600,214.199 206.076,213.978 206.658 M223.920 207.238 C 224.103 208.806,222.930 209.594,222.418 208.247 C 222.200 207.675,222.130 206.927,222.262 206.584 C 222.629 205.625,223.785 206.081,223.920 207.238 M227.919 207.761 C 227.752 208.927,226.560 209.056,226.268 207.940 C 225.953 206.732,226.697 205.817,227.472 206.460 C 227.784 206.719,227.985 207.304,227.919 207.761 M194.576 207.778 C 195.004 208.120,195.634 208.386,195.976 208.368 C 196.515 208.341,196.518 208.307,196.000 208.114 C 195.670 207.992,195.040 207.726,194.600 207.524 C 193.813 207.162,193.812 207.166,194.576 207.778 M224.000 210.800 C 224.485 211.114,224.428 211.189,223.700 211.194 C 223.205 211.197,222.800 211.020,222.800 210.800 C 222.800 210.299,223.224 210.299,224.000 210.800 M227.230 210.910 C 227.213 211.070,227.110 211.200,227.000 211.200 C 225.408 211.200,225.391 211.193,226.000 210.800 C 226.646 210.383,227.279 210.440,227.230 210.910 M214.414 211.574 C 213.468 213.341,214.320 215.263,216.556 216.403 C 217.460 216.864,218.650 217.500,219.200 217.815 C 220.501 218.561,221.566 218.553,221.857 217.795 C 222.181 216.950,221.342 216.071,220.071 215.924 C 219.149 215.817,218.931 215.521,218.507 213.800 C 217.807 210.961,215.433 209.670,214.414 211.574 M217.824 214.476 C 218.253 215.827,217.360 216.275,216.101 215.339 C 215.305 214.748,214.965 214.104,214.873 213.020 L 214.747 211.519 216.158 212.595 C 216.934 213.187,217.684 214.033,217.824 214.476 M204.703 213.500 C 205.221 213.995,205.950 214.389,206.322 214.375 C 206.773 214.358,206.668 214.217,206.008 213.954 C 205.463 213.736,204.734 213.342,204.389 213.079 C 204.043 212.816,204.185 213.005,204.703 213.500 M209.620 213.776 C 209.357 214.093,208.750 214.428,208.271 214.522 C 207.425 214.686,207.424 214.693,208.238 214.746 C 208.699 214.775,209.402 214.440,209.800 214.000 C 210.198 213.560,210.428 213.200,210.311 213.200 C 210.194 213.200,209.883 213.459,209.620 213.776 M220.700 217.076 C 220.315 217.176,219.685 217.176,219.300 217.076 C 218.915 216.975,219.230 216.893,220.000 216.893 C 220.770 216.893,221.085 216.975,220.700 217.076 " stroke="none" fill="#8ca494" fill-rule="evenodd"></path><path id="path5" d="M198.400 151.543 C 197.190 151.698,195.750 152.088,195.200 152.410 L 194.200 152.994 195.249 153.119 C 195.825 153.187,197.394 152.873,198.736 152.422 C 201.961 151.335,206.039 151.335,209.264 152.422 C 210.605 152.873,212.264 153.188,212.951 153.122 L 214.200 153.000 212.703 152.283 C 211.024 151.478,202.387 151.031,198.400 151.543 M188.000 153.494 C 187.450 153.596,186.066 154.561,184.924 155.639 C 183.782 156.718,182.595 157.600,182.286 157.600 C 181.977 157.600,181.407 157.950,181.021 158.377 C 180.634 158.805,179.796 159.269,179.159 159.409 C 178.522 159.549,177.776 159.980,177.500 160.367 C 177.225 160.754,176.460 161.202,175.800 161.362 C 175.140 161.522,174.240 161.993,173.800 162.408 C 172.066 164.043,171.360 164.795,170.400 166.033 C 169.850 166.743,168.905 167.904,168.300 168.614 C 167.695 169.324,167.200 170.086,167.200 170.307 C 167.200 170.527,166.750 171.003,166.200 171.363 C 165.650 171.724,165.200 172.195,165.200 172.412 C 165.200 172.628,164.387 173.606,163.393 174.586 C 162.197 175.765,161.520 176.811,161.389 177.683 C 161.194 178.987,161.197 178.990,161.696 177.968 C 162.146 177.047,164.517 173.979,166.462 171.800 C 167.558 170.573,169.302 168.530,170.299 167.305 C 173.113 163.849,173.733 163.200,174.222 163.200 C 174.518 163.200,174.904 162.949,175.080 162.643 C 175.256 162.337,176.030 161.789,176.800 161.425 C 177.570 161.062,179.100 160.238,180.200 159.595 C 181.300 158.952,182.875 158.105,183.700 157.713 C 184.524 157.321,185.289 156.730,185.399 156.400 C 185.698 155.502,188.649 153.962,190.749 153.607 L 192.600 153.294 190.800 153.302 C 189.810 153.306,188.550 153.392,188.000 153.494 M217.556 153.633 C 218.522 153.822,219.602 154.230,219.956 154.538 C 220.310 154.846,221.474 155.191,222.542 155.305 C 223.641 155.422,225.002 155.895,225.679 156.395 C 226.729 157.171,226.857 157.193,226.737 156.571 C 226.643 156.088,225.776 155.617,224.000 155.085 C 222.570 154.657,220.833 154.058,220.140 153.753 C 219.446 153.449,218.186 153.220,217.340 153.244 L 215.800 153.288 217.556 153.633 M195.400 157.290 C 194.960 157.546,193.700 157.960,192.600 158.208 C 191.388 158.482,190.585 158.885,190.561 159.230 C 190.540 159.544,190.594 159.600,190.680 159.356 C 190.766 159.113,192.050 158.811,193.533 158.687 C 196.228 158.461,198.400 157.769,198.400 157.136 C 198.400 156.643,196.328 156.750,195.400 157.290 M199.340 159.900 L 199.279 163.000 199.814 160.304 C 200.108 158.821,200.460 157.426,200.598 157.204 C 200.735 156.982,200.522 156.800,200.124 156.800 C 199.493 156.800,199.392 157.198,199.340 159.900 M204.800 157.449 C 204.800 157.980,204.909 158.008,205.400 157.600 C 205.730 157.326,206.000 157.034,206.000 156.951 C 206.000 156.868,205.730 156.800,205.400 156.800 C 205.070 156.800,204.800 157.092,204.800 157.449 M210.316 157.559 C 210.945 158.105,212.108 158.441,214.022 158.630 C 216.072 158.832,216.709 159.028,216.426 159.369 C 216.214 159.624,215.851 160.681,215.618 161.719 C 215.386 162.756,214.841 163.959,214.408 164.392 C 213.975 164.825,213.497 165.679,213.346 166.290 C 213.194 166.900,212.754 167.625,212.367 167.900 C 211.980 168.176,211.535 168.986,211.378 169.700 C 211.221 170.415,210.771 171.225,210.378 171.500 C 209.985 171.776,209.549 172.522,209.409 173.159 C 209.269 173.796,208.805 174.634,208.377 175.021 C 207.950 175.407,207.600 175.952,207.600 176.231 C 207.600 176.510,207.175 177.247,206.655 177.869 C 206.135 178.491,205.570 179.450,205.400 180.000 C 205.230 180.550,204.665 181.509,204.145 182.131 C 203.625 182.753,203.211 183.653,203.225 184.131 L 203.251 185.000 203.597 184.141 C 203.788 183.668,204.131 183.166,204.361 183.024 C 204.590 182.883,205.132 181.964,205.566 180.983 C 206.000 180.003,206.531 179.200,206.746 179.200 C 206.961 179.200,207.259 178.642,207.409 177.959 C 207.559 177.277,207.978 176.416,208.341 176.047 C 208.703 175.678,209.326 174.751,209.724 173.988 C 210.122 173.224,210.966 171.700,211.601 170.600 C 212.235 169.500,212.979 168.150,213.253 167.600 C 213.528 167.050,214.049 166.240,214.412 165.800 C 214.774 165.360,215.309 164.370,215.601 163.600 C 215.893 162.830,216.386 161.901,216.696 161.535 C 218.344 159.594,215.712 157.472,211.000 156.943 L 209.400 156.763 210.316 157.559 M228.000 157.759 C 228.550 158.101,229.758 158.751,230.683 159.202 C 231.609 159.654,232.472 160.193,232.600 160.400 C 232.728 160.607,233.591 161.120,234.517 161.538 C 235.442 161.957,236.785 162.883,237.500 163.597 C 238.215 164.311,238.800 164.692,238.800 164.444 C 238.800 163.732,236.702 161.739,235.600 161.404 C 235.050 161.237,234.280 160.765,233.889 160.355 C 233.498 159.945,232.688 159.495,232.089 159.355 C 231.490 159.215,230.730 158.766,230.400 158.358 C 230.070 157.950,229.170 157.508,228.400 157.376 L 227.000 157.136 228.000 157.759 M222.200 161.600 C 221.859 162.260,221.404 162.800,221.190 162.800 C 220.975 162.800,220.800 163.070,220.800 163.400 C 220.800 163.730,220.959 164.000,221.154 164.000 C 221.627 164.000,222.800 162.178,222.800 161.443 C 222.800 161.122,223.115 160.776,223.500 160.676 C 224.151 160.505,224.152 160.490,223.510 160.446 C 223.120 160.420,222.551 160.921,222.200 161.600 M224.897 161.615 C 225.173 162.063,225.850 162.540,226.400 162.676 C 226.950 162.811,227.909 163.344,228.531 163.861 C 229.153 164.377,230.053 164.789,230.531 164.775 C 231.397 164.749,231.397 164.748,230.491 164.384 C 229.991 164.183,229.485 163.765,229.366 163.454 C 229.246 163.144,228.626 162.785,227.987 162.657 C 227.348 162.530,226.459 162.059,226.013 161.613 C 224.951 160.551,224.240 160.553,224.897 161.615 M204.446 162.096 C 204.421 162.698,204.040 164.138,203.600 165.296 C 203.160 166.453,202.806 167.850,202.814 168.400 L 202.827 169.400 203.582 168.494 C 204.353 167.569,205.065 163.233,204.687 161.758 C 204.549 161.219,204.479 161.317,204.446 162.096 M184.200 162.402 C 183.479 162.710,183.504 162.747,184.448 162.772 C 185.391 162.797,185.517 162.984,185.703 164.641 C 185.974 167.038,187.210 168.498,187.181 166.386 C 187.143 163.640,185.727 161.748,184.200 162.402 M181.478 163.830 C 180.855 164.368,180.598 164.800,180.901 164.800 C 181.703 164.800,182.935 163.799,182.755 163.295 C 182.666 163.043,182.126 163.269,181.478 163.830 M190.800 164.541 C 190.800 165.152,191.013 166.046,191.274 166.526 C 191.535 167.007,191.970 168.300,192.240 169.400 L 192.732 171.400 192.749 169.800 C 192.773 167.422,192.179 164.807,191.447 164.075 C 190.851 163.480,190.800 163.517,190.800 164.541 M220.446 164.700 C 220.421 164.975,220.025 165.575,219.567 166.033 C 218.495 167.105,218.809 167.445,219.988 166.490 C 220.563 166.025,220.818 165.477,220.691 164.980 C 220.582 164.551,220.472 164.425,220.446 164.700 M177.909 165.997 C 176.845 167.064,176.836 167.109,177.573 167.775 C 177.988 168.151,178.446 168.929,178.590 169.503 C 178.960 170.975,180.800 173.143,180.800 172.106 C 180.800 171.691,180.395 170.917,179.900 170.386 C 178.295 168.666,177.966 167.016,179.063 166.191 C 179.579 165.804,180.000 165.333,180.000 165.144 C 180.000 164.495,178.999 164.903,177.909 165.997 M231.606 165.300 C 231.609 165.575,231.768 166.046,231.958 166.346 C 232.170 166.680,232.090 167.303,231.755 167.946 C 231.452 168.526,231.204 169.135,231.202 169.300 C 231.201 169.465,230.845 169.955,230.410 170.390 C 229.976 170.824,229.497 171.679,229.346 172.290 C 229.194 172.900,228.754 173.625,228.367 173.900 C 227.980 174.176,227.535 174.986,227.378 175.700 C 227.221 176.415,226.771 177.225,226.378 177.500 C 225.985 177.776,225.549 178.522,225.409 179.159 C 225.269 179.796,224.805 180.634,224.377 181.021 C 223.950 181.407,223.600 181.952,223.600 182.231 C 223.600 182.510,223.175 183.247,222.655 183.869 C 222.135 184.491,221.570 185.450,221.400 186.000 C 221.230 186.550,220.665 187.509,220.145 188.131 C 219.625 188.753,219.211 189.653,219.225 190.131 L 219.251 191.000 219.597 190.141 C 219.788 189.668,220.131 189.166,220.361 189.024 C 220.590 188.883,221.132 187.964,221.566 186.983 C 222.000 186.003,222.517 185.200,222.714 185.200 C 222.912 185.200,223.292 184.470,223.559 183.579 C 223.826 182.687,224.288 181.864,224.586 181.750 C 224.884 181.636,225.248 181.060,225.395 180.471 C 225.542 179.882,225.963 179.067,226.331 178.660 C 227.029 177.888,228.273 175.662,229.439 173.100 C 229.814 172.275,230.266 171.600,230.442 171.600 C 230.618 171.600,231.127 170.835,231.571 169.900 C 232.016 168.965,232.600 167.899,232.868 167.531 C 233.246 167.014,233.250 166.628,232.887 165.831 C 232.399 164.761,231.595 164.427,231.606 165.300 M198.344 166.200 C 197.959 166.916,197.608 168.851,197.474 171.000 C 197.301 173.786,197.330 174.150,197.604 172.611 C 197.799 171.518,198.251 169.859,198.607 168.925 C 198.964 167.991,199.196 166.726,199.122 166.114 L 198.989 165.000 198.344 166.200 M238.464 166.100 C 238.429 166.705,238.025 167.575,237.567 168.033 C 236.501 169.099,236.806 169.447,237.975 168.500 C 238.666 167.941,238.827 167.471,238.696 166.390 C 238.557 165.244,238.517 165.193,238.464 166.100 M218.400 168.074 C 218.400 168.335,218.009 168.964,217.532 169.473 C 217.054 169.981,216.800 170.533,216.966 170.698 C 217.379 171.109,218.800 169.293,218.800 168.356 C 218.800 167.940,218.710 167.600,218.600 167.600 C 218.490 167.600,218.400 167.813,218.400 168.074 M187.264 170.600 C 187.199 173.283,187.941 177.712,188.559 178.330 C 189.431 179.203,189.458 177.468,188.604 175.308 C 188.277 174.479,187.848 172.810,187.651 171.600 C 187.442 170.316,187.281 169.900,187.264 170.600 M236.400 170.074 C 236.400 170.335,236.009 170.964,235.532 171.473 C 235.054 171.981,234.800 172.533,234.966 172.698 C 235.379 173.109,236.800 171.293,236.800 170.356 C 236.800 169.940,236.710 169.600,236.600 169.600 C 236.490 169.600,236.400 169.813,236.400 170.074 M173.200 171.200 C 173.430 171.630,173.954 172.161,174.363 172.380 C 174.773 172.600,175.230 173.267,175.380 173.863 C 175.530 174.459,176.090 175.467,176.626 176.104 C 177.162 176.740,177.600 177.490,177.600 177.769 C 177.600 178.048,177.950 178.593,178.377 178.979 C 178.805 179.366,179.269 180.204,179.409 180.841 C 179.549 181.478,179.985 182.224,180.378 182.500 C 180.771 182.775,181.223 183.594,181.382 184.319 C 181.542 185.045,182.016 185.853,182.436 186.115 C 182.856 186.378,183.200 186.882,183.200 187.236 C 183.200 187.590,183.737 188.672,184.393 189.640 C 185.049 190.608,185.589 191.619,185.593 191.886 C 185.597 192.153,185.938 192.553,186.351 192.774 C 187.149 193.201,187.720 195.078,187.158 195.426 C 186.974 195.540,186.709 195.175,186.568 194.616 C 186.411 193.990,186.032 193.600,185.579 193.600 C 185.176 193.600,184.610 193.278,184.323 192.884 C 184.035 192.490,183.170 191.734,182.400 191.204 C 181.630 190.674,180.856 190.006,180.680 189.720 C 180.504 189.434,180.009 189.200,179.580 189.200 C 179.151 189.200,178.800 188.936,178.800 188.614 C 178.800 188.292,178.425 187.827,177.966 187.582 C 177.507 187.336,176.347 186.340,175.389 185.368 C 174.431 184.395,173.465 183.600,173.243 183.600 C 173.021 183.600,172.696 183.343,172.520 183.029 C 172.195 182.448,169.377 180.206,167.843 179.306 C 167.379 179.034,167.229 178.809,167.510 178.806 C 167.790 178.803,168.200 178.325,168.421 177.745 C 168.642 177.165,169.165 176.310,169.583 175.845 C 171.636 173.567,172.800 172.054,172.800 171.665 C 172.800 171.141,170.982 172.913,170.395 174.009 C 170.162 174.444,169.708 174.800,169.386 174.800 C 169.064 174.800,168.797 175.115,168.793 175.500 C 168.789 175.885,168.339 176.624,167.793 177.142 C 166.731 178.149,166.457 179.600,167.328 179.600 C 167.618 179.600,168.243 180.005,168.716 180.500 C 169.465 181.283,170.702 182.364,172.497 183.803 C 175.734 186.398,178.260 188.598,178.520 189.047 C 178.696 189.351,179.106 189.600,179.432 189.600 C 179.758 189.600,180.131 189.877,180.261 190.215 C 180.391 190.553,181.015 191.098,181.648 191.425 C 182.282 191.753,182.800 192.286,182.800 192.610 C 182.800 192.935,183.035 193.200,183.322 193.200 C 183.609 193.200,184.531 193.830,185.372 194.600 C 187.888 196.904,189.003 196.324,187.421 193.535 C 186.880 192.581,186.114 191.170,185.719 190.400 C 185.323 189.630,184.802 188.871,184.559 188.713 C 184.317 188.556,183.807 187.611,183.426 186.613 C 183.045 185.616,182.583 184.800,182.398 184.800 C 182.213 184.800,181.861 184.192,181.616 183.448 C 181.371 182.705,180.827 181.786,180.408 181.407 C 179.988 181.027,179.534 180.211,179.398 179.592 C 179.262 178.973,178.927 178.381,178.654 178.276 C 178.380 178.171,177.912 177.346,177.614 176.443 C 177.316 175.539,176.919 174.800,176.732 174.800 C 176.545 174.800,175.989 173.963,175.496 172.940 C 174.986 171.881,174.208 170.938,173.691 170.750 C 172.878 170.454,172.826 170.502,173.200 171.200 M216.262 171.863 C 216.101 172.338,215.706 172.827,215.385 172.950 C 214.735 173.200,214.575 174.400,215.191 174.400 C 215.811 174.400,216.882 172.511,216.710 171.720 C 216.574 171.089,216.518 171.107,216.262 171.863 M202.289 174.342 C 202.117 175.300,201.712 176.596,201.389 177.222 C 200.581 178.784,200.573 181.086,201.378 180.418 C 202.102 179.817,202.891 176.127,202.725 174.116 L 202.600 172.600 202.289 174.342 M180.800 173.813 C 180.800 174.136,180.974 174.400,181.187 174.400 C 181.400 174.400,181.843 174.895,182.171 175.500 C 182.619 176.325,182.772 176.419,182.784 175.874 C 182.793 175.474,182.625 174.820,182.411 174.421 C 181.896 173.458,180.800 173.045,180.800 173.813 M234.262 173.863 C 234.101 174.338,233.706 174.827,233.385 174.950 C 232.735 175.200,232.575 176.400,233.191 176.400 C 233.811 176.400,234.882 174.511,234.710 173.720 C 234.574 173.089,234.518 173.107,234.262 173.863 M192.800 176.034 C 192.800 176.807,192.975 177.615,193.188 177.828 C 193.402 178.042,193.837 179.293,194.155 180.608 L 194.733 183.000 194.749 181.200 C 194.772 178.632,194.199 176.028,193.447 175.275 C 192.851 174.680,192.800 174.740,192.800 176.034 M214.212 175.563 C 214.079 175.983,213.706 176.427,213.385 176.550 C 213.063 176.674,212.806 177.096,212.813 177.487 C 212.829 178.385,214.800 176.292,214.800 175.378 C 214.800 174.565,214.498 174.660,214.212 175.563 M196.325 177.600 C 195.981 178.370,195.579 180.350,195.432 182.000 C 195.285 183.650,195.059 185.630,194.929 186.400 C 194.800 187.170,194.798 187.705,194.925 187.588 C 195.052 187.472,195.348 186.122,195.583 184.588 C 195.818 183.055,196.290 181.041,196.633 180.114 C 196.975 179.186,197.187 177.926,197.103 177.314 L 196.949 176.200 196.325 177.600 M232.200 177.600 C 232.060 178.040,231.781 178.400,231.578 178.400 C 231.376 178.400,230.931 179.068,230.590 179.885 C 230.249 180.702,229.661 181.713,229.285 182.132 C 228.634 182.855,228.639 182.885,229.392 182.743 C 229.835 182.658,230.363 182.073,230.592 181.413 C 230.816 180.765,231.405 179.795,231.900 179.259 C 232.395 178.722,232.800 177.949,232.800 177.542 C 232.800 176.570,232.518 176.597,232.200 177.600 M183.454 178.057 C 183.924 178.576,184.443 179.450,184.609 180.000 C 184.988 181.260,186.800 183.480,186.800 182.685 C 186.800 182.367,186.395 181.595,185.900 180.969 C 185.405 180.343,184.820 179.286,184.600 178.620 C 184.367 177.915,183.866 177.348,183.400 177.262 C 182.622 177.118,182.623 177.139,183.454 178.057 M211.680 179.577 C 210.979 180.526,210.910 180.800,211.374 180.800 C 212.021 180.800,212.936 179.407,212.718 178.755 C 212.645 178.534,212.178 178.904,211.680 179.577 M161.200 179.285 C 161.200 179.860,162.120 182.000,162.367 182.000 C 162.526 182.000,163.392 182.630,164.292 183.400 C 165.191 184.170,166.115 184.800,166.344 184.800 C 166.834 184.800,165.302 183.098,164.334 182.566 C 163.967 182.365,163.112 181.500,162.434 180.645 C 161.755 179.790,161.200 179.178,161.200 179.285 M189.401 183.532 C 189.513 184.993,189.409 186.409,189.156 186.882 C 188.727 187.683,188.981 188.099,190.149 188.510 C 190.342 188.578,190.636 189.346,190.803 190.216 L 191.108 191.800 191.154 189.874 C 191.179 188.814,191.006 187.585,190.769 187.142 C 190.532 186.699,190.083 185.136,189.773 183.668 L 189.207 181.000 189.401 183.532 M210.000 182.601 C 209.706 183.150,209.315 183.600,209.132 183.600 C 208.950 183.600,208.800 183.876,208.800 184.214 C 208.800 185.206,210.344 184.164,210.643 182.970 C 210.990 181.588,210.647 181.391,210.000 182.601 M186.800 184.180 C 186.800 184.499,187.041 184.904,187.335 185.080 C 187.630 185.256,188.075 185.760,188.323 186.200 C 188.774 186.997,188.776 186.997,188.788 186.189 C 188.801 185.280,187.757 183.600,187.177 183.600 C 186.970 183.600,186.800 183.861,186.800 184.180 M228.000 184.601 C 227.706 185.150,227.315 185.600,227.132 185.600 C 226.950 185.600,226.800 185.876,226.800 186.214 C 226.800 187.206,228.344 186.164,228.643 184.970 C 228.990 183.588,228.647 183.391,228.000 184.601 M200.250 186.088 C 200.064 187.346,199.661 188.583,199.355 188.837 C 199.030 189.107,198.818 189.981,198.843 190.949 L 198.886 192.600 199.266 190.900 C 199.548 189.640,199.841 189.200,200.397 189.200 C 200.824 189.200,201.266 188.814,201.426 188.300 C 201.579 187.805,202.071 186.880,202.519 186.244 C 203.083 185.445,203.159 185.144,202.767 185.268 C 202.455 185.367,201.895 186.047,201.523 186.780 L 200.846 188.113 200.718 185.956 L 200.590 183.800 200.250 186.088 M167.270 185.486 C 167.344 185.879,167.810 186.378,168.306 186.596 C 168.802 186.814,169.308 187.309,169.430 187.695 C 169.553 188.082,170.091 188.508,170.627 188.642 C 171.162 188.777,171.600 189.131,171.600 189.429 C 171.600 189.728,172.005 190.185,172.500 190.446 C 172.995 190.706,173.760 191.258,174.200 191.672 C 175.685 193.069,177.796 194.663,178.500 194.920 C 178.885 195.060,179.200 195.447,179.200 195.780 C 179.200 196.113,179.644 196.496,180.186 196.632 C 180.728 196.768,181.275 197.205,181.401 197.603 C 181.617 198.282,182.735 198.999,183.065 198.669 C 183.147 198.586,182.195 197.637,180.948 196.559 C 179.702 195.482,178.250 194.195,177.723 193.700 C 177.195 193.205,176.596 192.800,176.391 192.800 C 176.186 192.800,175.724 192.350,175.363 191.800 C 175.003 191.250,174.488 190.800,174.220 190.800 C 173.952 190.800,173.254 190.305,172.669 189.700 C 172.084 189.095,171.041 188.150,170.352 187.600 C 169.663 187.050,168.657 186.189,168.117 185.686 C 167.283 184.909,167.156 184.879,167.270 185.486 M207.753 186.204 C 207.287 186.710,206.779 187.636,206.623 188.262 C 206.468 188.888,205.963 189.804,205.502 190.298 C 205.041 190.793,204.783 191.316,204.929 191.463 C 205.261 191.795,206.800 190.063,206.800 189.357 C 206.800 189.071,207.250 188.386,207.800 187.836 C 208.350 187.286,208.800 186.468,208.800 186.018 C 208.800 185.045,208.824 185.041,207.753 186.204 M225.753 188.204 C 225.287 188.710,224.779 189.636,224.623 190.262 C 224.468 190.888,223.963 191.804,223.502 192.298 C 223.041 192.793,222.783 193.316,222.929 193.463 C 223.261 193.795,224.800 192.063,224.800 191.357 C 224.800 191.071,225.250 190.386,225.800 189.836 C 226.350 189.286,226.800 188.468,226.800 188.018 C 226.800 187.045,226.824 187.041,225.753 188.204 M217.823 192.089 C 217.480 192.578,217.200 193.180,217.200 193.427 C 217.200 193.674,216.856 194.187,216.436 194.567 C 216.016 194.948,215.551 195.741,215.404 196.329 C 215.256 196.918,214.792 197.720,214.372 198.111 C 213.953 198.502,213.494 199.282,213.353 199.845 C 213.212 200.407,212.670 201.294,212.148 201.815 C 211.627 202.337,211.187 203.267,211.172 203.882 C 211.147 204.867,211.103 204.905,210.800 204.200 C 210.611 203.760,210.444 203.638,210.428 203.929 C 210.397 204.516,209.888 205.077,208.400 206.162 C 207.436 206.865,207.433 206.884,208.300 206.683 C 209.508 206.404,209.473 207.265,208.221 208.616 C 207.085 209.841,205.103 209.714,204.384 208.370 C 204.137 207.909,203.358 207.507,202.422 207.357 C 201.367 207.188,200.806 206.867,200.672 206.354 C 200.560 205.927,200.122 205.600,199.661 205.600 C 198.612 205.600,198.452 205.286,198.693 203.700 C 198.995 201.718,200.856 202.656,201.451 205.090 C 201.754 206.325,202.254 206.785,203.306 206.794 C 203.855 206.799,203.739 206.554,202.792 205.700 C 200.337 203.487,200.830 198.477,203.584 197.652 C 206.591 196.751,209.050 197.497,210.259 199.676 C 210.746 200.553,210.772 200.558,210.786 199.776 C 210.818 197.932,206.428 195.691,204.788 196.715 C 203.461 197.543,202.439 197.340,202.705 196.300 C 202.902 195.528,202.782 195.579,201.865 196.660 C 201.277 197.353,200.680 198.502,200.537 199.213 C 200.388 199.960,199.982 200.584,199.577 200.690 C 199.154 200.801,198.772 201.423,198.615 202.259 C 198.472 203.021,198.005 203.995,197.578 204.422 C 197.042 204.958,196.968 205.200,197.340 205.200 C 197.637 205.200,198.625 205.740,199.537 206.400 C 200.448 207.060,201.443 207.600,201.748 207.600 C 202.053 207.600,202.528 207.872,202.804 208.205 C 203.080 208.537,204.092 209.157,205.053 209.582 C 206.014 210.007,206.800 210.527,206.800 210.738 C 206.800 211.504,209.053 208.962,209.581 207.600 C 209.879 206.830,210.347 206.014,210.620 205.786 C 210.894 205.559,211.416 204.749,211.780 203.986 C 212.750 201.958,213.849 200.039,214.479 199.272 C 214.783 198.903,215.352 197.970,215.743 197.200 C 216.751 195.216,217.762 193.422,218.545 192.228 C 219.368 190.972,218.695 190.843,217.823 192.089 M203.718 193.457 C 203.054 194.469,202.977 194.800,203.404 194.800 C 204.059 194.800,204.910 193.406,204.725 192.636 C 204.655 192.345,204.210 192.709,203.718 193.457 M222.108 194.924 C 221.838 195.516,221.433 196.000,221.209 196.000 C 220.984 196.000,220.800 196.180,220.800 196.400 C 220.800 196.620,221.064 196.800,221.386 196.800 C 222.092 196.800,222.900 195.413,222.724 194.503 C 222.632 194.025,222.465 194.139,222.108 194.924 M188.400 196.576 C 188.400 197.222,188.967 197.700,189.317 197.350 C 189.629 197.038,189.199 196.000,188.757 196.000 C 188.561 196.000,188.400 196.259,188.400 196.576 M219.724 198.787 C 219.242 199.382,218.727 200.352,218.578 200.943 C 218.430 201.535,217.998 202.239,217.619 202.509 C 217.240 202.779,216.806 203.500,216.654 204.110 C 216.503 204.721,216.024 205.576,215.590 206.010 C 214.547 207.053,214.563 207.753,215.615 207.103 C 216.063 206.827,216.540 206.150,216.676 205.600 C 216.811 205.050,217.344 204.091,217.861 203.469 C 218.377 202.847,218.800 201.999,218.800 201.583 C 218.800 201.168,219.139 200.647,219.554 200.425 C 220.198 200.080,221.077 198.105,220.719 197.806 C 220.654 197.750,220.206 198.192,219.724 198.787 M183.600 199.311 C 183.600 199.675,183.956 200.162,184.391 200.395 C 184.826 200.628,185.623 201.219,186.161 201.709 C 186.699 202.199,187.681 203.095,188.344 203.700 C 189.007 204.305,189.749 204.800,189.993 204.800 C 190.588 204.800,189.136 202.829,188.529 202.813 C 188.270 202.806,187.704 202.350,187.271 201.800 C 186.839 201.250,186.341 200.800,186.164 200.800 C 185.988 200.800,185.339 200.316,184.722 199.725 C 183.846 198.886,183.600 198.795,183.600 199.311 M190.800 205.020 C 190.800 205.549,191.988 207.465,192.736 208.142 C 194.220 209.485,194.498 208.608,193.038 207.189 C 192.252 206.425,191.607 205.575,191.604 205.300 C 191.602 205.025,191.420 204.800,191.200 204.800 C 190.980 204.800,190.800 204.899,190.800 205.020 M214.279 208.557 C 214.115 208.974,214.075 209.409,214.191 209.524 C 214.555 209.889,214.876 209.291,214.724 208.531 C 214.583 207.835,214.562 207.836,214.279 208.557 M195.276 209.500 C 195.349 209.885,195.954 210.380,196.620 210.600 C 197.286 210.820,198.343 211.405,198.969 211.900 C 199.595 212.395,200.378 212.800,200.708 212.800 C 201.038 212.800,201.725 213.250,202.235 213.800 C 202.745 214.350,203.544 214.800,204.012 214.800 C 205.151 214.800,203.086 212.987,201.490 212.587 C 200.908 212.441,200.222 212.067,199.964 211.756 C 199.705 211.445,198.708 210.843,197.747 210.418 C 196.786 209.993,196.000 209.455,196.000 209.222 C 196.000 208.990,195.807 208.800,195.571 208.800 C 195.335 208.800,195.202 209.115,195.276 209.500 M212.400 211.786 C 212.400 212.108,212.040 212.565,211.600 212.800 C 211.160 213.035,210.800 213.460,210.800 213.744 C 210.800 215.402,207.243 216.721,206.475 215.348 C 206.274 214.990,205.872 214.776,205.580 214.873 C 205.192 215.003,205.285 215.285,205.925 215.925 C 207.012 217.012,208.953 217.068,209.900 216.040 C 212.186 213.560,212.800 212.703,212.800 211.993 C 212.800 211.557,212.710 211.200,212.600 211.200 C 212.490 211.200,212.400 211.464,212.400 211.786 " stroke="none" fill="#f4cdfc" fill-rule="evenodd"></path><path id="path6" d="M239.996 167.300 C 239.560 168.015,239.202 168.782,239.201 169.004 C 239.201 169.226,238.862 169.618,238.450 169.876 C 238.037 170.134,237.579 170.985,237.432 171.767 C 237.286 172.550,236.830 173.370,236.419 173.590 C 235.980 173.825,235.563 174.636,235.408 175.556 C 235.233 176.591,234.896 177.186,234.414 177.312 C 234.001 177.420,233.569 178.030,233.418 178.718 C 233.271 179.386,232.902 180.029,232.598 180.145 C 232.294 180.262,231.831 181.073,231.569 181.946 C 231.283 182.899,230.794 183.613,230.346 183.730 C 229.776 183.879,229.600 184.300,229.600 185.517 C 229.600 186.773,229.389 187.246,228.600 187.763 C 228.050 188.124,227.600 188.698,227.600 189.041 C 227.600 189.873,230.690 192.807,231.533 192.775 C 232.066 192.754,232.039 192.679,231.400 192.402 C 230.960 192.211,229.972 191.395,229.205 190.588 L 227.811 189.121 228.905 188.180 C 229.719 187.480,230.000 186.871,230.000 185.807 C 230.000 184.903,230.221 184.290,230.600 184.145 C 230.930 184.018,231.567 183.169,232.014 182.257 C 233.861 178.499,234.416 177.649,235.189 177.404 C 235.786 177.214,236.000 176.801,236.000 175.835 C 236.000 175.045,236.309 174.245,236.777 173.821 C 237.205 173.434,237.665 172.614,237.800 172.000 C 237.935 171.386,238.395 170.566,238.823 170.179 C 239.250 169.793,239.600 169.234,239.600 168.938 C 239.600 167.970,241.159 166.800,242.449 166.800 C 243.523 166.800,243.627 166.886,243.192 167.410 C 242.914 167.745,242.816 168.150,242.976 168.309 C 243.505 168.839,244.438 167.128,243.944 166.533 C 243.051 165.456,240.860 165.882,239.996 167.300 M242.464 169.760 C 242.397 170.977,244.601 173.600,245.691 173.600 C 247.382 173.600,248.536 175.734,247.624 177.174 C 247.321 177.654,247.156 177.661,246.621 177.217 C 245.752 176.496,245.476 176.880,246.181 177.829 C 247.029 178.972,248.166 178.125,248.326 176.232 C 248.479 174.419,247.939 173.700,246.173 173.369 C 245.386 173.221,244.733 172.819,244.600 172.401 C 244.476 172.008,244.032 171.597,243.615 171.488 C 243.110 171.356,242.803 170.842,242.693 169.945 C 242.539 168.688,242.524 168.676,242.464 169.760 M238.800 175.227 C 238.800 175.461,238.325 176.276,237.744 177.038 C 237.164 177.799,236.825 178.552,236.991 178.711 C 237.158 178.870,237.498 178.663,237.747 178.250 C 237.996 177.838,238.600 176.893,239.088 176.150 C 239.780 175.098,239.846 174.800,239.388 174.800 C 239.065 174.800,238.800 174.992,238.800 175.227 M242.000 175.177 C 242.000 175.758,243.681 176.802,244.589 176.784 C 245.187 176.773,245.059 176.620,244.100 176.204 C 243.385 175.893,242.800 175.450,242.800 175.219 C 242.800 174.989,242.620 174.800,242.400 174.800 C 242.180 174.800,242.000 174.970,242.000 175.177 M236.297 180.364 C 236.130 181.115,235.636 181.980,235.197 182.287 C 234.759 182.594,234.400 183.185,234.400 183.599 C 234.400 184.014,234.201 184.476,233.957 184.626 C 233.649 184.817,233.679 185.004,234.057 185.244 C 234.954 185.812,235.179 185.667,235.825 184.100 C 236.668 182.053,239.010 180.498,239.597 181.594 C 240.158 182.642,240.100 183.503,239.443 183.880 C 238.012 184.702,237.621 186.992,238.629 188.648 C 240.157 191.160,240.178 191.261,239.302 191.951 C 238.849 192.308,238.360 193.173,238.214 193.872 C 237.858 195.581,237.079 196.141,234.646 196.438 L 232.600 196.687 234.611 196.744 C 237.041 196.812,238.230 196.087,238.621 194.300 C 238.777 193.585,239.338 192.597,239.869 192.104 C 240.903 191.142,240.676 189.994,239.240 188.936 C 238.201 188.170,238.492 185.377,239.731 184.229 C 240.616 183.409,240.714 183.095,240.414 182.049 C 239.765 179.787,238.807 179.291,238.000 180.800 C 237.371 181.975,236.868 181.777,236.725 180.300 L 236.599 179.000 236.297 180.364 M235.595 183.100 C 235.581 183.837,235.080 185.200,234.823 185.200 C 234.666 185.200,234.618 184.660,234.715 184.000 C 234.864 182.979,235.611 182.216,235.595 183.100 M235.300 191.076 C 235.685 191.176,236.315 191.176,236.700 191.076 C 237.085 190.975,236.770 190.893,236.000 190.893 C 235.230 190.893,234.915 190.975,235.300 191.076 M231.068 193.402 C 230.006 193.694,228.836 194.205,228.468 194.537 C 228.101 194.869,227.080 195.214,226.200 195.303 L 224.600 195.466 226.079 195.533 C 226.996 195.574,228.272 195.220,229.438 194.600 C 230.473 194.050,231.642 193.600,232.036 193.600 C 232.430 193.600,232.864 193.420,233.000 193.200 C 233.136 192.980,233.192 192.816,233.124 192.836 C 233.056 192.855,232.131 193.110,231.068 193.402 M223.443 196.233 C 223.030 197.309,223.175 199.815,223.680 200.320 C 224.457 201.097,224.986 200.869,224.262 200.069 C 223.493 199.218,223.381 196.779,224.080 196.080 C 224.401 195.759,224.415 195.600,224.123 195.600 C 223.882 195.600,223.576 195.885,223.443 196.233 M230.041 197.834 C 229.149 198.468,228.913 198.800,229.355 198.800 C 230.160 198.800,232.000 197.655,232.000 197.154 C 232.000 196.614,231.528 196.777,230.041 197.834 M229.980 199.607 C 232.422 200.182,233.171 202.512,231.568 204.550 C 231.110 205.132,230.807 205.822,230.894 206.083 C 230.981 206.344,231.627 205.724,232.328 204.704 C 233.030 203.684,233.446 202.752,233.254 202.633 C 233.061 202.514,232.794 201.870,232.660 201.202 C 232.406 199.929,231.159 199.162,229.474 199.241 C 228.906 199.268,229.083 199.396,229.980 199.607 M222.300 201.632 C 221.915 201.856,221.600 202.239,221.600 202.482 C 221.600 202.734,221.901 202.653,222.300 202.295 C 222.685 201.950,223.540 201.589,224.200 201.493 L 225.400 201.320 224.200 201.272 C 223.540 201.246,222.685 201.408,222.300 201.632 M221.200 203.738 C 221.200 204.034,220.840 204.602,220.400 205.000 C 219.960 205.398,219.600 205.902,219.600 206.120 C 219.600 206.338,220.050 206.031,220.600 205.438 C 221.487 204.481,221.945 203.200,221.400 203.200 C 221.290 203.200,221.200 203.442,221.200 203.738 M219.108 207.510 C 218.979 208.001,218.051 208.540,216.357 209.108 L 213.800 209.966 215.474 209.983 C 218.249 210.011,220.704 208.171,219.499 206.966 C 219.390 206.857,219.214 207.102,219.108 207.510 M230.446 207.774 C 230.421 208.200,230.009 208.965,229.530 209.474 C 228.782 210.271,228.755 210.400,229.340 210.400 C 230.087 210.400,230.931 208.632,230.663 207.632 C 230.537 207.166,230.481 207.203,230.446 207.774 M220.082 210.676 C 219.878 211.074,219.587 211.940,219.436 212.600 C 219.285 213.260,219.068 214.115,218.954 214.500 C 218.828 214.925,218.959 215.200,219.288 215.200 C 219.587 215.200,220.509 215.546,221.338 215.969 C 222.196 216.406,222.779 216.538,222.692 216.275 C 222.607 216.020,221.947 215.643,221.226 215.436 C 219.917 215.061,219.916 215.057,220.182 213.053 C 220.499 210.664,220.768 210.126,221.280 210.857 C 221.593 211.304,221.633 211.298,221.505 210.825 C 221.268 209.947,220.498 209.866,220.082 210.676 M228.400 211.313 C 228.400 211.669,228.085 212.144,227.700 212.368 C 227.061 212.740,227.059 212.777,227.673 212.788 C 228.345 212.800,229.085 211.352,228.637 210.903 C 228.506 210.773,228.400 210.958,228.400 211.313 M213.405 213.600 C 213.588 215.831,214.261 216.818,215.576 216.784 C 215.947 216.774,215.761 216.530,215.117 216.180 C 214.341 215.759,213.966 215.170,213.791 214.096 C 213.369 211.512,213.218 211.318,213.405 213.600 M224.262 213.640 C 225.112 214.490,226.800 214.188,226.800 213.186 C 226.800 212.656,226.258 212.702,225.680 213.280 C 225.307 213.653,225.093 213.653,224.720 213.280 C 224.456 213.016,224.056 212.800,223.831 212.800 C 223.606 212.800,223.800 213.178,224.262 213.640 M217.200 217.524 C 217.200 218.105,218.704 218.909,219.322 218.658 C 219.638 218.529,219.607 218.452,219.231 218.432 C 218.919 218.414,218.334 218.102,217.931 217.738 C 217.519 217.365,217.200 217.271,217.200 217.524 M222.800 217.564 C 222.800 217.750,223.072 218.128,223.405 218.404 C 224.822 219.580,222.370 220.244,220.890 219.085 C 220.610 218.866,220.250 218.816,220.091 218.976 C 219.639 219.428,221.234 220.400,222.427 220.400 C 223.736 220.400,224.553 219.513,224.218 218.456 C 223.968 217.669,222.800 216.933,222.800 217.564 " stroke="none" fill="#d0e0d4" fill-rule="evenodd"></path><path id="path7" d="M240.400 167.600 C 239.960 168.040,239.600 168.642,239.600 168.938 C 239.600 169.234,239.250 169.793,238.823 170.179 C 238.395 170.566,237.935 171.386,237.800 172.000 C 237.665 172.614,237.205 173.434,236.777 173.821 C 236.309 174.245,236.000 175.045,236.000 175.835 C 236.000 176.801,235.786 177.214,235.189 177.404 C 234.416 177.649,233.861 178.499,232.014 182.257 C 231.567 183.169,230.930 184.018,230.600 184.145 C 230.221 184.290,230.000 184.903,230.000 185.807 C 230.000 186.870,229.719 187.480,228.908 188.178 L 227.816 189.117 229.397 190.746 C 230.267 191.642,231.480 192.486,232.093 192.620 C 233.279 192.881,233.237 193.600,232.036 193.600 C 231.642 193.600,230.473 194.050,229.438 194.600 C 228.396 195.154,226.889 195.600,226.059 195.600 C 222.631 195.600,222.578 200.335,226.000 200.889 C 226.721 201.005,226.442 201.141,225.000 201.374 C 222.806 201.729,221.600 202.533,221.600 203.641 C 221.600 204.036,221.150 204.844,220.600 205.438 C 220.050 206.031,219.600 206.906,219.600 207.382 C 219.600 209.046,218.668 209.729,216.154 209.912 L 213.800 210.083 213.683 211.541 C 213.444 214.536,213.899 215.600,215.772 216.429 C 216.719 216.848,217.720 217.463,217.996 217.795 C 218.272 218.128,218.701 218.401,218.949 218.402 C 219.197 218.404,219.855 218.642,220.411 218.933 C 222.706 220.130,224.997 219.726,223.405 218.404 C 223.072 218.128,222.800 217.658,222.800 217.360 C 222.800 216.696,221.398 215.752,219.840 215.369 C 219.014 215.165,218.762 215.215,218.964 215.542 C 219.120 215.794,219.665 216.000,220.175 216.000 C 221.286 216.000,222.180 216.954,221.857 217.795 C 221.566 218.553,220.501 218.561,219.200 217.815 C 218.650 217.500,217.452 216.860,216.538 216.394 C 214.573 215.393,213.673 213.694,214.243 212.063 C 215.008 209.876,218.400 210.967,218.400 213.400 C 218.400 214.926,219.075 214.591,219.391 212.907 C 219.931 210.030,220.907 209.177,221.593 210.983 C 222.529 213.443,228.400 213.821,228.400 211.421 C 228.400 211.113,228.835 210.345,229.366 209.713 C 229.898 209.081,230.464 207.852,230.624 206.982 C 230.785 206.112,231.250 204.971,231.658 204.446 C 233.172 202.500,232.060 199.600,229.800 199.600 C 226.888 199.600,230.645 196.831,233.984 196.515 C 236.769 196.252,237.856 195.582,238.205 193.914 C 238.356 193.191,238.849 192.308,239.302 191.951 C 240.178 191.261,240.157 191.160,238.629 188.648 C 237.621 186.992,238.012 184.702,239.443 183.880 C 240.100 183.503,240.158 182.642,239.597 181.594 C 239.010 180.498,236.668 182.053,235.825 184.100 C 235.179 185.667,234.954 185.812,234.057 185.244 C 233.679 185.004,233.649 184.817,233.957 184.626 C 234.201 184.476,234.400 184.014,234.400 183.599 C 234.400 183.185,234.742 182.606,235.160 182.313 C 235.578 182.020,236.135 180.975,236.397 179.990 C 236.659 179.006,237.307 177.627,237.837 176.927 C 238.367 176.226,238.800 175.461,238.800 175.227 C 238.800 174.826,240.120 174.600,241.694 174.731 C 242.076 174.763,242.751 175.151,243.194 175.594 C 243.637 176.037,244.225 176.401,244.500 176.402 C 244.775 176.404,245.526 176.679,246.169 177.015 C 247.474 177.695,247.983 177.335,247.994 175.723 C 248.000 174.833,246.662 173.600,245.691 173.600 C 243.608 173.600,241.889 169.988,242.979 167.900 C 243.712 166.495,241.735 166.265,240.400 167.600 M241.887 169.624 C 241.660 171.316,243.198 173.087,245.862 174.200 C 246.800 174.592,247.200 175.020,247.200 175.632 C 247.200 176.744,244.570 176.477,243.578 175.264 C 242.190 173.568,238.616 173.902,237.588 175.823 L 237.037 176.852 236.700 175.942 C 236.445 175.252,236.549 174.882,237.132 174.416 C 237.554 174.077,238.017 173.299,238.161 172.687 C 238.304 172.074,238.777 171.269,239.211 170.898 C 239.645 170.526,240.000 169.980,240.000 169.685 C 240.000 168.626,240.801 167.626,241.451 167.875 C 241.934 168.060,242.040 168.487,241.887 169.624 M235.926 179.326 C 236.013 180.062,235.736 180.683,235.026 181.341 C 234.462 181.864,234.000 182.666,234.000 183.123 C 234.000 183.580,233.630 184.214,233.178 184.530 C 232.376 185.092,232.387 185.117,233.638 185.553 C 235.445 186.183,235.525 186.155,236.152 184.654 C 236.524 183.763,237.131 183.163,237.948 182.878 C 239.370 182.382,240.039 182.937,238.811 183.594 C 238.365 183.833,238.000 184.342,238.000 184.725 C 238.000 185.108,237.711 185.835,237.357 186.340 C 236.756 187.199,236.769 187.315,237.569 188.167 C 238.736 189.409,238.288 190.307,236.365 190.579 C 234.328 190.867,234.229 191.308,236.100 191.771 C 239.558 192.625,237.462 196.000,233.473 196.000 C 229.159 196.000,226.773 198.955,230.034 200.260 C 231.339 200.783,231.600 201.076,231.600 202.020 C 231.600 203.311,231.003 203.905,230.644 202.971 C 230.488 202.564,230.020 202.391,229.302 202.473 C 227.935 202.630,228.036 203.282,229.500 203.755 C 230.105 203.950,230.662 204.162,230.737 204.225 C 231.104 204.534,229.531 208.687,228.816 209.296 C 228.367 209.679,228.000 210.332,228.000 210.747 C 228.000 213.200,222.416 212.922,222.066 210.452 C 221.992 209.932,221.603 209.421,221.200 209.316 C 219.769 208.942,219.779 206.360,221.215 205.592 C 221.611 205.380,222.056 204.654,222.205 203.978 C 222.489 202.685,223.066 202.326,225.800 201.742 C 227.571 201.363,227.731 200.746,226.167 200.328 C 222.422 199.326,223.287 196.000,227.293 196.000 C 228.991 196.000,229.687 195.838,229.854 195.404 C 229.980 195.076,230.786 194.597,231.646 194.339 C 234.527 193.476,234.484 192.784,231.494 191.843 C 231.106 191.721,230.615 191.166,230.404 190.610 C 230.193 190.055,229.745 189.600,229.410 189.600 C 229.074 189.600,228.800 189.420,228.800 189.200 C 228.800 188.604,230.109 188.716,231.554 189.437 C 232.911 190.114,234.180 189.931,233.896 189.100 C 233.802 188.825,233.081 188.600,232.294 188.600 C 230.612 188.600,229.717 184.904,231.299 184.490 C 231.685 184.389,232.000 184.066,232.000 183.772 C 232.000 182.810,232.917 181.200,233.464 181.200 C 233.784 181.200,234.000 180.749,234.000 180.080 C 234.000 177.983,235.689 177.322,235.926 179.326 M236.700 191.076 C 236.315 191.176,235.685 191.176,235.300 191.076 C 234.915 190.975,235.230 190.893,236.000 190.893 C 236.770 190.893,237.085 190.975,236.700 191.076 M210.501 202.200 C 210.505 203.080,210.587 203.393,210.683 202.895 C 210.779 202.398,210.775 201.678,210.675 201.295 C 210.575 200.913,210.496 201.320,210.501 202.200 M224.656 204.678 C 224.205 205.128,224.381 205.600,225.000 205.600 C 225.330 205.600,225.600 205.431,225.600 205.224 C 225.600 204.719,224.975 204.358,224.656 204.678 M222.262 206.584 C 222.130 206.927,222.200 207.675,222.418 208.247 C 222.930 209.594,224.103 208.806,223.920 207.238 C 223.785 206.081,222.629 205.625,222.262 206.584 M226.470 206.516 C 225.853 207.260,226.351 208.868,227.152 208.715 C 227.991 208.555,228.203 207.067,227.472 206.460 C 227.035 206.097,226.807 206.110,226.470 206.516 " stroke="none" fill="#c4d4cc" fill-rule="evenodd"></path><path id="path8" d="" stroke="none" fill="#100ecec" fill-rule="evenodd"></path></g></svg>