<?xml version="1.0" encoding="UTF-8" standalone="no" ?>
<!DOCTYPE svg PUBLIC "-//W3C//DTD SVG 1.1//EN" "http://www.w3.org/Graphics/SVG/1.1/DTD/svg11.dtd">
<svg xmlns="http://www.w3.org/2000/svg" xmlns:xlink="http://www.w3.org/1999/xlink" version="1.1" width="640" height="480" viewBox="0 0 640 480" xml:space="preserve">
<desc>Created with Fabric.js 3.6.3</desc>
<defs>
</defs>
<g transform="matrix(1 0 0 1 287 278)"  >
<path style="stroke: rgb(76,44,44); stroke-width: 1; stroke-dasharray: none; stroke-linecap: round; stroke-dashoffset: 0; stroke-linejoin: round; stroke-miterlimit: 10; fill: none; fill-rule: nonzero; opacity: 1;"  transform=" translate(-287, -278)" d="M 286.999 278 L 287.001 278" stroke-linecap="round" />
</g>
<g transform="matrix(1 0 0 1 220 181)"  >
<path style="stroke: rgb(76,44,44); stroke-width: 1; stroke-dasharray: none; stroke-linecap: round; stroke-dashoffset: 0; stroke-linejoin: round; stroke-miterlimit: 10; fill: none; fill-rule: nonzero; opacity: 1;"  transform=" translate(-220, -181)" d="M 219.999 181 L 220.001 181" stroke-linecap="round" />
</g>
<g transform="matrix(0.81 0 0 0.81 320.25 240.25)"  >
<path style="stroke: none; stroke-width: 1; stroke-dasharray: none; stroke-linecap: butt; stroke-dashoffset: 0; stroke-linejoin: miter; stroke-miterlimit: 4; fill: rgb(226,226,17); fill-rule: nonzero; opacity: 1;"  transform=" translate(-256, -256)" d="M 512 80 C 512 98.01 497.7 114.6 473.6 128 C 444.5 144.1 401.2 155.5 351.3 158.9 C 347.7 157.2 343.9 155.5 340.1 153.9 C 300.6 137.4 248.2 128 192 128 C 183.7 128 175.6 128.2 167.5 128.6 L 166.4 128 C 142.3 114.6 128 98.01 128 80 C 128 35.82 213.1 0 320 0 C 426 0 512 35.82 512 80 V 80 z M 160.7 161.1 C 170.9 160.4 181.3 160 192 160 C 254.2 160 309.4 172.3 344.5 191.4 C 369.3 204.9 384 221.7 384 240 C 384 243.1 383.3 247.9 381.9 251.7 C 377.3 264.9 364.1 277 346.9 287.3 C 346.9 287.3 346.9 287.3 346.9 287.3 C 346.8 287.3 346.6 287.4 346.5 287.5 L 346.5 287.5 C 346.2 287.7 345.9 287.8 345.6 288 C 310.6 307.4 254.8 320 192 320 C 132.4 320 79.06 308.7 43.84 290.9 C 41.97 289.9 40.15 288.1 38.39 288 C 14.28 274.6 0 258 0 240 C 0 205.2 53.43 175.5 128 164.6 C 138.5 163 149.4 161.8 160.7 161.1 L 160.7 161.1 z M 391.9 186.6 C 420.2 182.2 446.1 175.2 468.1 166.1 C 484.4 159.3 499.5 150.9 512 140.6 V 176 C 512 195.3 495.5 213.1 468.2 226.9 C 453.5 234.3 435.8 240.5 415.8 245.3 C 415.9 243.6 416 241.8 416 240 C 416 218.1 405.4 200.1 391.9 186.6 V 186.6 z M 384 336 C 384 354 369.7 370.6 345.6 384 C 343.8 384.1 342 385.9 340.2 386.9 C 304.9 404.7 251.6 416 192 416 C 129.2 416 73.42 403.4 38.39 384 C 14.28 370.6 0.0003 354 0.0003 336 V 300.6 C 12.45 310.9 27.62 319.3 43.93 326.1 C 83.44 342.6 135.8 352 192 352 C 248.2 352 300.6 342.6 340.1 326.1 C 347.9 322.9 355.4 319.2 362.5 315.2 C 368.6 311.8 374.3 308 379.7 304 C 381.2 302.9 382.6 301.7 384 300.6 L 384 336 z M 416 278.1 C 434.1 273.1 452.5 268.6 468.1 262.1 C 484.4 255.3 499.5 246.9 512 236.6 V 272 C 512 282.5 507 293 497.1 302.9 C 480.8 319.2 452.1 332.6 415.8 341.3 C 415.9 339.6 416 337.8 416 336 V 278.1 z M 192 448 C 248.2 448 300.6 438.6 340.1 422.1 C 356.4 415.3 371.5 406.9 384 396.6 V 432 C 384 476.2 298 512 192 512 C 85.96 512 0.0003 476.2 0.0003 432 V 396.6 C 12.45 406.9 27.62 415.3 43.93 422.1 C 83.44 438.6 135.8 448 192 448 z" stroke-linecap="round" />
</g>
</svg>