<?xml version="1.0" encoding="UTF-8" standalone="no" ?>
<!DOCTYPE svg PUBLIC "-//W3C//DTD SVG 1.1//EN" "http://www.w3.org/Graphics/SVG/1.1/DTD/svg11.dtd">
<svg xmlns="http://www.w3.org/2000/svg" xmlns:xlink="http://www.w3.org/1999/xlink" version="1.1" width="640" height="480" viewBox="0 0 640 480" xml:space="preserve">
<desc>Created with Fabric.js 3.6.3</desc>
<defs>
</defs>
<g transform="matrix(1 0 0 1 287 278)"  >
<path style="stroke: rgb(76,44,44); stroke-width: 1; stroke-dasharray: none; stroke-linecap: round; stroke-dashoffset: 0; stroke-linejoin: round; stroke-miterlimit: 10; fill: none; fill-rule: nonzero; opacity: 1;"  transform=" translate(-287, -278)" d="M 286.999 278 L 287.001 278" stroke-linecap="round" />
</g>
<g transform="matrix(1 0 0 1 220 181)"  >
<path style="stroke: rgb(76,44,44); stroke-width: 1; stroke-dasharray: none; stroke-linecap: round; stroke-dashoffset: 0; stroke-linejoin: round; stroke-miterlimit: 10; fill: none; fill-rule: nonzero; opacity: 1;"  transform=" translate(-220, -181)" d="M 219.999 181 L 220.001 181" stroke-linecap="round" />
</g>
<g transform="matrix(0.78 0 0 0.78 320.49 240.01)"  >
<path style="stroke: none; stroke-width: 1; stroke-dasharray: none; stroke-linecap: butt; stroke-dashoffset: 0; stroke-linejoin: miter; stroke-miterlimit: 4; fill: rgb(255,255,0); fill-rule: nonzero; opacity: 1;"  transform=" translate(-255.98, -256)" d="M 223.7 130.8 L 149.1 7.77 C 147.1 2.949 141.9 0 136.3 0 H 16.03 c -12.95 0 -20.53 14.58 -13.1 25.18 l 111.3 158.9 C 143.9 156.4 181.7 137.3 223.7 130.8 z M 256 160 c -97.25 0 -176 78.75 -176 176 S 158.8 512 256 512 s 176 -78.75 176 -176 S 353.3 160 256 160 z M 348.5 317.3 l -37.88 37 l 8.875 52.25 c 1.625 9.25 -8.25 16.5 -16.63 12 l -46.88 -24.62 L 209.1 418.5 c -8.375 4.5 -18.25 -2.75 -16.63 -12 l 8.875 -52.25 l -37.88 -37 C 156.6 310.6 160.5 299 169.9 297.6 l 52.38 -7.625 L 245.7 242.5 c 2 -4.25 6.125 -6.375 10.25 -6.375 S 264.2 238.3 266.2 242.5 l 23.5 47.5 l 52.38 7.625 C 351.6 299 355.4 310.6 348.5 317.3 z M 495.1 0 H 375.7 c -5.621 0 -10.83 2.949 -13.72 7.77 l -73.76 122.1 c 42 6.5 79.88 25.62 109.5 53.38 l 111.3 -158.9 C 516.5 14.58 508.9 0 495.1 0 z" stroke-linecap="round" />
</g>
</svg>