<?xml version="1.0" encoding="UTF-8" standalone="no" ?>
<!DOCTYPE svg PUBLIC "-//W3C//DTD SVG 1.1//EN" "http://www.w3.org/Graphics/SVG/1.1/DTD/svg11.dtd">
<svg xmlns="http://www.w3.org/2000/svg" xmlns:xlink="http://www.w3.org/1999/xlink" version="1.1" width="640" height="480" viewBox="0 0 640 480" xml:space="preserve">
<desc>Created with Fabric.js 3.6.3</desc>
<defs>
</defs>
<g transform="matrix(0.86 0 0 0.86 321.09 241.16)"  >
<path style="stroke: rgb(0,0,0); stroke-opacity: 0; stroke-width: 0; stroke-dasharray: ; stroke-linecap: butt; stroke-dashoffset: 0; stroke-linejoin: miter; stroke-miterlimit: 4; fill: rgb(192,192,192); fill-rule: nonzero; opacity: 1;"  transform=" translate(-287.9, -256)" d="M 572.1 82.38 C 569.5 71.59 559.8 64 548.7 64 h -100.8 c 0.2422 -12.45 0.1078 -23.7 -0.1559 -33.02 C 447.3 13.63 433.2 0 415.8 0 H 160.2 C 142.8 0 128.7 13.63 128.2 30.98 C 127.1 40.3 127.8 51.55 128.1 64 H 27.26 C 16.16 64 6.537 71.59 3.912 82.38 C 3.1 85.78 -15.71 167.2 37.07 245.9 c 37.44 55.82 100.6 95.03 187.5 117.4 c 18.7 4.805 31.41 22.06 31.41 41.37 C 256 428.5 236.5 448 212.6 448 H 208 c -26.51 0 -47.99 21.49 -47.99 48 c 0 8.836 7.163 16 15.1 16 h 223.1 c 8.836 0 15.1 -7.164 15.1 -16 c 0 -26.51 -21.48 -48 -47.99 -48 h -4.644 c -23.86 0 -43.36 -19.5 -43.36 -43.35 c 0 -19.31 12.71 -36.57 31.41 -41.37 c 86.96 -22.34 150.1 -61.55 187.5 -117.4 C 591.7 167.2 572.9 85.78 572.1 82.38 z M 77.41 219.8 C 49.47 178.6 47.01 135.7 48.38 112 h 80.39 c 5.359 59.62 20.35 131.1 57.67 189.1 C 137.4 281.6 100.9 254.4 77.41 219.8 z M 498.6 219.8 c -23.44 34.6 -59.94 61.75 -109 81.22 C 426.9 243.1 441.9 171.6 447.2 112 h 80.39 C 528.1 135.7 526.5 178.7 498.6 219.8 z" stroke-linecap="round" />
</g>
<g transform="matrix(1 0 0 1 287 278)"  >
<path style="stroke: rgb(76,44,44); stroke-width: 1; stroke-dasharray: none; stroke-linecap: round; stroke-dashoffset: 0; stroke-linejoin: round; stroke-miterlimit: 10; fill: none; fill-rule: nonzero; opacity: 1;"  transform=" translate(-287, -278)" d="M 286.999 278 L 287.001 278" stroke-linecap="round" />
</g>
<g transform="matrix(1 0 0 1 220 181)"  >
<path style="stroke: rgb(76,44,44); stroke-width: 1; stroke-dasharray: none; stroke-linecap: round; stroke-dashoffset: 0; stroke-linejoin: round; stroke-miterlimit: 10; fill: none; fill-rule: nonzero; opacity: 1;"  transform=" translate(-220, -181)" d="M 219.999 181 L 220.001 181" stroke-linecap="round" />
</g>
</svg>