<?xml version="1.0" standalone="no"?>
<!DOCTYPE svg PUBLIC "-//W3C//DTD SVG 20010904//EN"
 "http://www.w3.org/TR/2001/REC-SVG-20010904/DTD/svg10.dtd">
<svg version="1.0" xmlns="http://www.w3.org/2000/svg"
 width="900.000000pt" height="900.000000pt" viewBox="0 0 900.000000 900.000000"
 preserveAspectRatio="xMidYMid meet">

<g transform="translate(0.000000,900.000000) scale(0.100000,-0.100000)"
fill="#000000" stroke="none">
<path d="M4215 8960 c-1269 -87 -2433 -695 -3215 -1680 -99 -125 -288 -404
-365 -540 -700 -1232 -792 -2702 -248 -3985 368 -867 1054 -1637 1893 -2125
457 -266 947 -445 1444 -530 193 -32 308 -44 583 -61 412 -25 940 36 1398 162
980 268 1840 878 2452 1740 352 496 612 1096 727 1680 69 347 94 978 56 1369
-78 781 -379 1550 -858 2183 -241 320 -553 633 -872 878 -693 531 -1496 841
-2330 898 -224 16 -522 20 -665 11z m583 -111 c468 -51 821 -209 1181 -528
170 -151 363 -411 471 -636 159 -329 230 -636 230 -995 0 -197 -18 -349 -61
-521 -152 -605 -549 -1105 -1109 -1397 -322 -169 -589 -237 -990 -252 -129 -5
-270 -15 -315 -20 -460 -63 -895 -277 -1243 -614 -467 -452 -689 -1004 -669
-1662 10 -335 86 -629 243 -936 113 -219 252 -405 440 -588 164 -159 310 -264
523 -376 93 -49 94 -49 57 -52 -99 -9 -446 88 -691 193 -602 256 -1056 561
-1470 986 -336 345 -587 701 -800 1134 -383 778 -518 1568 -419 2445 105 925
539 1820 1224 2524 527 541 1180 935 1877 1132 222 62 645 139 898 163 133 12
511 13 623 0z m-183 -6028 c114 -23 195 -64 263 -133 95 -95 142 -220 142
-378 0 -153 -42 -276 -129 -372 -78 -87 -149 -125 -288 -154 -145 -30 -268 -2
-398 90 -157 113 -232 262 -222 440 13 244 192 461 420 511 84 18 107 18 212
-4z"/>
<path d="M4395 7260 c-166 -35 -321 -156 -390 -303 -125 -265 -9 -619 245
-747 61 -31 184 -60 252 -60 196 1 413 132 497 299 39 77 71 196 71 265 -1
281 -254 534 -551 550 -46 3 -102 1 -124 -4z"/>
</g>
</svg>
